<?xml version="1.0" encoding="UTF-8"?>
<svg width="38px" height="38px" viewBox="0 0 38 38" version="1.1" xmlns="http://www.w3.org/2000/svg" xmlns:xlink="http://www.w3.org/1999/xlink">
    <title>322CF44E-382A-4743-8447-5B03B7EB649F@0.5x</title>
    <g id="Icons" stroke="none" stroke-width="1" fill="none" fill-rule="evenodd">
        <g id="UI-Mapping-Icons" transform="translate(-365.000000, -1068.000000)"></g>
        <g id="Group-8" fill="#5A287D">
            <path d="M12.1729191,30.8413915 C13.4091442,33.25 15.0017585,35.6362028 16.9618992,38 C11.7608441,37.4398585 7.18347011,34.7623821 4.09847597,30.8413915 L4.09847597,30.8413915 Z M33.901524,30.8413915 C31.0726846,34.4375 26.9853458,36.9805425 22.3188746,37.8095519 C24.2121923,35.5129717 25.7491208,33.182783 26.9519343,30.8413915 L26.9519343,30.8413915 Z M18.7883939,30.8413915 L18.7883939,37.40625 C16.9284877,35.2329009 15.3915592,33.0483491 14.1776084,30.8413915 L14.1776084,30.8413915 L18.7883939,30.8413915 Z M24.947245,30.8413915 C23.7778429,32.9587264 22.3188746,35.0648585 20.5480657,37.1597877 L20.5480657,37.1597877 L20.5480657,30.8413915 Z M28.2438453,19.8738208 C28.0767878,22.9433962 27.2749121,26.0129717 25.8493552,29.0713443 L25.8493552,29.0713443 L20.5480657,29.0713443 L20.5480657,19.8738208 Z M9.1101993,19.8738208 C9.26611958,22.9545991 10.0123095,26.0241745 11.3376319,29.0713443 L11.3376319,29.0713443 L2.85111372,29.0713443 C1.19167644,26.3714623 0.167057444,23.2346698 0.011137163,19.8738208 L0.011137163,19.8738208 Z M37.9888628,19.8626179 C37.8440797,23.2346698 36.8194607,26.3714623 35.1488863,29.0601415 L35.1488863,29.0601415 L27.7983587,29.0601415 C29.112544,26.0241745 29.869871,22.9545991 30.0146542,19.8626179 L30.0146542,19.8626179 Z M18.7883939,19.8626179 L18.7883939,29.0601415 L13.2754982,29.0601415 C11.8499414,26.0129717 11.0480657,22.9433962 10.8810082,19.8626179 L10.8810082,19.8626179 L18.7883939,19.8626179 Z M35.1154748,8.83903302 C36.8083236,11.5501179 37.8440797,14.709316 38,18.0925708 L38,18.0925708 L30.0480657,18.0925708 C30.0369285,17.7788915 30.0369285,17.4764151 30.0146542,17.1627358 C29.8253224,14.0595519 29.0568581,11.2700472 28.0545135,8.83903302 L28.0545135,8.83903302 Z M26.0943728,8.83903302 C27.1969519,11.2700472 28.0545135,14.115566 28.2438453,17.285967 C28.2661196,17.5548349 28.2661196,17.8237028 28.2661196,18.0925708 L28.2661196,18.0925708 L20.5480657,18.0925708 L20.5480657,8.83903302 Z M18.7883939,8.83903302 L18.7883939,18.0925708 L10.8587339,18.0925708 C10.8587339,17.8237028 10.869871,17.5548349 10.8810082,17.285967 C11.07034,14.1267689 11.9279015,11.28125 13.0304807,8.83903302 L13.0304807,8.83903302 L18.7883939,8.83903302 Z M11.0814771,8.83903302 C10.0679953,11.2700472 9.31066823,14.0595519 9.12133646,17.1627358 C9.09906213,17.4652123 9.09906213,17.7788915 9.08792497,18.0925708 L9.08792497,18.0925708 L-3.55271368e-15,18.0925708 C0.155920281,14.709316 1.19167644,11.5501179 2.88452521,8.83903302 L2.88452521,8.83903302 Z M22.5973036,0.201650943 C27.130129,1.0754717 31.0838218,3.57370283 33.8569754,7.05778302 L33.8569754,7.05778302 L27.2415006,7.05778302 C25.7379836,4.03301887 23.9337632,1.70283019 22.5973036,0.201650943 Z M20.5480657,0.61615566 C21.6840563,1.80365566 23.5885111,4.03301887 25.2145369,7.05778302 L25.2145369,7.05778302 L20.5480657,7.05778302 Z M18.7883939,0.403301887 L18.7883939,7.05778302 L13.9103165,7.05778302 C15.647714,3.84257075 17.6969519,1.52358491 18.7883939,0.403301887 L18.7883939,0.403301887 Z M16.7168816,8.8817842e-16 C15.3692849,1.47877358 13.4536928,3.88738208 11.8833529,7.05778302 L11.8833529,7.05778302 L4.14302462,7.05778302 C7.18347011,3.23761792 11.6494725,0.61615566 16.7168816,8.8817842e-16 Z" id="Combined-Shape" fill-opacity="0.5"></path>
            <g id="Group-7" transform="translate(5.736916, 4.279698)">
                <path d="M15.9414938,1.97017203 C16.0557473,1.84061836 16.2555681,1.82795084 16.3878059,1.94187833 C16.439613,1.98651204 16.4755047,2.04640391 16.4900936,2.11256425 L16.4900936,2.11256425 L17.6030584,7.15984299 C17.6402964,7.32871719 17.5320673,7.49422208 17.3613217,7.52950852 C17.3133258,7.5394274 17.263552,7.53815785 17.2159419,7.52580039 L17.2159419,7.52580039 L15.9585093,7.19948174 C14.6380587,9.93980107 14.7312219,13.4361003 16.3024171,17.7522505 L16.1938064,17.4448762 C16.2006318,17.4629897 16.2074455,17.4811264 16.2142476,17.4992862 L19.1543535,25.5745657 C19.3782352,26.1897713 19.0595906,26.8705571 18.442707,27.0953154 C17.8503693,27.3107461 17.1984898,27.0275368 16.9492109,26.4602405 L14.1029097,18.6480744 L14.0681636,18.5653258 C14.0295364,18.459215 13.9917005,18.353446 13.9546566,18.2480196 L14.0778994,18.5775404 C12.5073935,14.2619379 10.3318372,11.5239227 7.55951805,10.2732039 L6.81273002,11.3231386 C6.78417908,11.363296 6.74686381,11.3963545 6.70373934,11.419696 C6.55032397,11.5027335 6.3613359,11.4457176 6.28162268,11.2923475 L3.89916953,6.70845237 C3.86794005,6.64836612 3.85704721,6.57934928 3.86812602,6.51176118 C3.89640466,6.33924263 4.05759542,6.22013519 4.22815565,6.24572728 L9.32582625,7.01061851 C9.37377007,7.01781235 9.41920472,7.03619812 9.45853207,7.06431979 C9.59843918,7.16436269 9.62951752,7.36127452 9.52794748,7.50413467 L8.9564564,8.30766643 C10.3318951,8.99663527 11.5681003,9.97508594 12.6656435,11.2367923 C12.6934661,9.55902252 13.0115595,8.00963121 13.624213,6.59332302 L12.688189,6.35059624 C12.5188162,6.30663456 12.4164137,6.13575717 12.4594666,5.96893092 C12.4715686,5.92203671 12.4945893,5.87866365 12.5267056,5.84224662 L12.5267056,5.84224662 Z" id="Combined-Shape" transform="translate(11.544933, 14.515762) rotate(20.000000) translate(-11.544933, -14.515762) "></path>
            </g>
        </g>
    </g>
</svg>