<?xml version="1.0" encoding="UTF-8"?>
<svg width="38px" height="38px" viewBox="0 0 38 38" version="1.1" xmlns="http://www.w3.org/2000/svg" xmlns:xlink="http://www.w3.org/1999/xlink">
    <title>C7DA1AD7-A0AA-48C7-9547-8186C208F591@0.5x</title>
    <g id="Icons" stroke="none" stroke-width="1" fill="none" fill-rule="evenodd">
        <g id="UI-Mapping-Icons" transform="translate(-203.000000, -1068.000000)"></g>
        <g id="3-Icons/Investments/Japan" fill="#5A287D">
            <path d="M12.1729191,30.8413915 C13.4091442,33.25 15.0017585,35.6362028 16.9618992,38 C11.7608441,37.4398585 7.18347011,34.7623821 4.09847597,30.8413915 L4.09847597,30.8413915 Z M33.901524,30.8413915 C31.0726846,34.4375 26.9853458,36.9805425 22.3188746,37.8095519 C24.2121923,35.5129717 25.7491208,33.182783 26.9519343,30.8413915 L26.9519343,30.8413915 Z M18.7883939,30.8413915 L18.7883939,37.40625 C16.9284877,35.2329009 15.3915592,33.0483491 14.1776084,30.8413915 L14.1776084,30.8413915 L18.7883939,30.8413915 Z M24.947245,30.8413915 C23.7778429,32.9587264 22.3188746,35.0648585 20.5480657,37.1597877 L20.5480657,37.1597877 L20.5480657,30.8413915 Z M28.2438453,19.8738208 C28.0767878,22.9433962 27.2749121,26.0129717 25.8493552,29.0713443 L25.8493552,29.0713443 L20.5480657,29.0713443 L20.5480657,19.8738208 Z M9.1101993,19.8738208 C9.26611958,22.9545991 10.0123095,26.0241745 11.3376319,29.0713443 L11.3376319,29.0713443 L2.85111372,29.0713443 C1.19167644,26.3714623 0.167057444,23.2346698 0.011137163,19.8738208 L0.011137163,19.8738208 Z M37.9888628,19.8626179 C37.8440797,23.2346698 36.8194607,26.3714623 35.1488863,29.0601415 L35.1488863,29.0601415 L27.7983587,29.0601415 C29.112544,26.0241745 29.869871,22.9545991 30.0146542,19.8626179 L30.0146542,19.8626179 Z M18.7883939,19.8626179 L18.7883939,29.0601415 L13.2754982,29.0601415 C11.8499414,26.0129717 11.0480657,22.9433962 10.8810082,19.8626179 L10.8810082,19.8626179 L18.7883939,19.8626179 Z M35.1154748,8.83903302 C36.8083236,11.5501179 37.8440797,14.709316 38,18.0925708 L38,18.0925708 L30.0480657,18.0925708 C30.0369285,17.7788915 30.0369285,17.4764151 30.0146542,17.1627358 C29.8253224,14.0595519 29.0568581,11.2700472 28.0545135,8.83903302 L28.0545135,8.83903302 Z M26.0943728,8.83903302 C27.1969519,11.2700472 28.0545135,14.115566 28.2438453,17.285967 C28.2661196,17.5548349 28.2661196,17.8237028 28.2661196,18.0925708 L28.2661196,18.0925708 L20.5480657,18.0925708 L20.5480657,8.83903302 Z M18.7883939,8.83903302 L18.7883939,18.0925708 L10.8587339,18.0925708 C10.8587339,17.8237028 10.869871,17.5548349 10.8810082,17.285967 C11.07034,14.1267689 11.9279015,11.28125 13.0304807,8.83903302 L13.0304807,8.83903302 L18.7883939,8.83903302 Z M11.0814771,8.83903302 C10.0679953,11.2700472 9.31066823,14.0595519 9.12133646,17.1627358 C9.09906213,17.4652123 9.09906213,17.7788915 9.08792497,18.0925708 L9.08792497,18.0925708 L-3.55271368e-15,18.0925708 C0.155920281,14.709316 1.19167644,11.5501179 2.88452521,8.83903302 L2.88452521,8.83903302 Z M22.5973036,0.201650943 C27.130129,1.0754717 31.0838218,3.57370283 33.8569754,7.05778302 L33.8569754,7.05778302 L27.2415006,7.05778302 C25.7379836,4.03301887 23.9337632,1.70283019 22.5973036,0.201650943 Z M20.5480657,0.61615566 C21.6840563,1.80365566 23.5885111,4.03301887 25.2145369,7.05778302 L25.2145369,7.05778302 L20.5480657,7.05778302 Z M18.7883939,0.403301887 L18.7883939,7.05778302 L13.9103165,7.05778302 C15.647714,3.84257075 17.6969519,1.52358491 18.7883939,0.403301887 L18.7883939,0.403301887 Z M16.7168816,8.8817842e-16 C15.3692849,1.47877358 13.4536928,3.88738208 11.8833529,7.05778302 L11.8833529,7.05778302 L4.14302462,7.05778302 C7.18347011,3.23761792 11.6494725,0.61615566 16.7168816,8.8817842e-16 Z" id="Combined-Shape" fill-opacity="0.5"></path>
            <g id="Group" transform="translate(7.000000, 5.000000)">
                <path d="M14.1838789,0.828094428 C13.1626076,0.695836023 10.7917991,-0.169855353 11.0146956,0.0297346035 C11.2497501,0.231729258 11.5820686,0.294251413 11.9224924,1.03008908 C12.2710215,1.76592675 12.3763907,1.5663368 12.9437637,1.83085361 C13.507084,2.09537041 14.2973535,2.76387653 14.5243027,2.96346649 C14.5243027,2.96346649 15.4239941,3.16305645 15.7603652,2.62921343 C16.0967363,2.09296572 16.0967363,2.22762882 15.6468906,1.69138111 C15.1929922,1.15994279 15.1929922,0.957948135 14.1838789,0.828094428" id="Fill-493"></path>
                <path d="M15,4.72943336 C15.0026756,5.59140777 15.3772648,6.56505497 15.6715848,5.59838732 C15.9685805,4.62822989 16.1157405,4.24086488 15.890987,4.04194771 C15.6662335,3.85349986 15,4.33857857 15,4.72943336" id="Fill-494"></path>
                <path d="M23.2618845,6.22383685 C22.4154355,5.84604864 22.4215032,6.78039983 21.9118135,7.35045525 C21.4112254,7.91039134 20.9864839,6.88496621 19.8882239,6.6960721 C18.7929978,6.51055111 19.2935859,6.13613601 18.9568266,5.29285876 C18.6200674,4.44958152 18.6200674,4.44958152 18.1983598,4.07516642 C17.7766522,3.70412443 18.0314971,4.82736972 18.0314971,4.82736972 C18.0314971,4.82736972 17.6583314,5.0432487 17.2699964,4.73629578 C16.6783922,4.27080674 17.0181854,5.76846713 16.68446,6.42622339 C16.3507346,7.08060653 16.68446,7.45502163 16.5175973,8.21059804 C16.3537684,8.95942824 16.2688201,9.23939629 15.7651981,9.70825844 C15.2615762,10.1804937 15.0916796,10.1804937 15.0067313,10.8348768 C14.9248169,11.4926331 15.6013693,11.2092919 16.4447844,11.5803339 C17.2881996,11.954749 16.866492,12.1436431 17.2881996,12.8924733 C17.712941,13.6379304 17.2062852,13.8268245 16.9544742,14.6734749 C16.705697,15.5201252 16.8725597,15.4223051 17.6370943,15.7967202 C18.3925273,16.1677622 18.307579,16.0766882 18.7262527,15.1389639 C19.1479603,14.2012396 19.3997713,14.5722816 20.161272,13.6311842 C20.9136711,12.6900868 20.9136711,12.9768011 21.0805338,12.2245977 C21.2473965,11.4757675 21.0805338,11.2868734 21.0744661,10.4402231 C21.0744661,9.60031895 21.5841558,10.160255 22.0847439,10.1568819 C22.5944337,10.1568819 22.5944337,10.43685 22.5064515,9.68801978 C22.4215032,8.93918959 22.7612964,9.12471058 23.0980556,8.65584843 C23.4317811,8.19035939 23.5986438,8.37250727 23.8534886,7.52923003 C24.1052996,6.68595278 24.1052996,6.58813262 23.2618845,6.22383685" id="Fill-495"></path>
                <path d="M14.7957184,14.4328037 C13.4645872,14.0934894 13.3000653,14.2662312 13.0547782,14.5222593 C12.8035085,14.7813721 12.4684822,14.4420578 12.4684822,14.4420578 C12.4684822,13.7572597 12.2202038,13.6647194 11.8044122,13.4981469 C11.3886207,13.3284898 11.4693859,12.640607 11.0535944,13.2421188 C10.6378028,13.8467153 10.7245507,13.4981469 10.5600288,14.2754853 C10.395507,15.0435695 10.28782,14.9448599 9.97971543,15.4754242 C9.07035834,17.0208468 8.73832335,16.9344759 8.65157547,17.5359877 C8.57380151,18.1344148 8.40927967,18.1344148 7.82896627,18.6495557 C7.24566155,19.1677812 6.8328613,19.0814103 5.83376502,20.0284058 C4.83766006,20.9723166 4.75390348,20.2906032 3.84155509,21.2345141 C2.92920669,22.1753402 2.84545012,22.0087677 2.26812802,22.9526785 C1.68482331,23.8965893 2.01386699,22.0951386 1.27501436,24.3253593 C1.27501436,24.3253593 -0.717195577,25.0163267 0.278909391,25.7011247 C1.27800567,26.3828381 1.61303196,26.1237253 2.10958879,26.2933825 C2.60913693,26.4661244 2.44461509,26.8054387 2.94117192,26.8948943 C3.44371136,26.9750959 2.61212823,26.8948943 3.44371136,26.9750959 C4.27230318,27.0614668 4.35605976,26.888725 5.02012973,26.9720112 C5.68719102,27.0583821 6.18374785,26.8856403 6.43202626,26.6265275 C6.68030468,26.3674147 6.18374785,26.5432413 7.26061809,25.5098748 C8.34047963,24.4765084 8.34047963,24.2204803 8.66952331,23.4462267 C8.99856699,22.6750577 8.83105385,22.0766306 9.24684541,21.7311469 C9.66263697,21.3887478 9.16308883,21.5614897 10.0784285,21.216006 C10.9877856,20.873607 10.2429504,20.8766917 11.4035772,20.6144942 C12.564204,20.3522967 12.1484124,20.3522967 12.564204,20.3522967 C12.9859782,20.3522967 11.3198206,20.0993533 11.900134,19.4145553 C12.4804474,18.7235879 13.3120305,18.1251608 13.6410742,17.5205643 C13.9701179,16.9221372 13.7218395,16.2342544 14.1376311,15.9782263 C14.5534226,15.7191136 15.3850058,14.5839528 14.7957184,14.4328037" id="Fill-496"></path>
            </g>
        </g>
    </g>
</svg>