<svg xmlns="http://www.w3.org/2000/svg" width="24" height="24" viewBox="0 0 24 24">
    <path fill="#22BD05" fill-rule="evenodd" d="M4.5 9c.828 0 1.5.672 1.5 1.5v7c0 .828-.672 1.5-1.5 1.5S3 18.328 3 17.5v-7C3 9.672 3.672 9 4.5 9zm5-4c.828 0 1.5.672 1.5 1.5v11c0 .828-.672 1.5-1.5 1.5S8 18.328 8 17.5v-11C8 5.672 8.672 5 9.5 5zm5 6c.828 0 1.5.672 1.5 1.5v5c0 .828-.672 1.5-1.5 1.5s-1.5-.672-1.5-1.5v-5c0-.828.672-1.5 1.5-1.5zm5-4c.828 0 1.5.672 1.5 1.5v9c0 .828-.672 1.5-1.5 1.5s-1.5-.672-1.5-1.5v-9c0-.828.672-1.5 1.5-1.5z"/>
</svg>
