<?xml version="1.0" encoding="UTF-8"?>
<svg width="32px" height="32px" viewBox="0 0 32 32" version="1.1" xmlns="http://www.w3.org/2000/svg" xmlns:xlink="http://www.w3.org/1999/xlink">
    <!-- Generator: Sketch 64 (93537) - https://sketch.com -->
    <title>98 Atom / Payment Status Pending</title>
    <desc>Created with Sketch.</desc>
    <defs>
        <circle id="path-1" cx="16" cy="16" r="16"></circle>
        <path d="M7.99333333,1.33333333 C4.31333333,1.33333333 1.33333333,4.32 1.33333333,8 C1.33333333,11.68 4.31333333,14.6666667 7.99333333,14.6666667 C11.68,14.6666667 14.6666667,11.68 14.6666667,8 C14.6666667,4.32 11.68,1.33333333 7.99333333,1.33333333 L7.99333333,1.33333333 Z M8,2.66666667 C10.9466667,2.66666667 13.3333333,5.05333333 13.3333333,8 C13.3333333,10.9466667 10.9466667,13.3333333 8,13.3333333 C5.05333333,13.3333333 2.66666667,10.9466667 2.66666667,8 C2.66666667,5.05333333 5.05333333,2.66666667 8,2.66666667 Z M8.33333333,4.66666667 L7.33333333,4.66666667 L7.33333333,8.66666667 L10.8333333,10.7666667 L11.3333333,9.94666667 L8.33333333,8.16666667 L8.33333333,4.66666667 Z" id="path-3"></path>
    </defs>
    <g id="98-Atom-/-Payment-Status-Pending" stroke="none" stroke-width="1" fill="none" fill-rule="evenodd">
        <mask id="mask-2" fill="white">
            <use xlink:href="#path-1"></use>
        </mask>
        <use id="mask" fill="#F2F2F2" xlink:href="#path-1"></use>
        <g id="2-Colors/3-Neutrals/$neutralsMap/6-greyer" mask="url(#mask-2)" fill="#CCD3D8" fill-rule="nonzero">
            <rect id="3-Neutrals/$neutralsMap/6-greyer" x="0" y="0" width="32" height="32"></rect>
        </g>
        <g id="3-Icons/1-Material/access_time" mask="url(#mask-2)">
            <g transform="translate(8.000000, 8.000000)">
                <mask id="mask-4" fill="white">
                    <use xlink:href="#path-3"></use>
                </mask>
                <g id="Mask" stroke="none" fill="none"></g>
                <g id="2-Colors/3-Neutrals/$neutralsMap/1-white" stroke="none" fill="none" mask="url(#mask-4)" fill-rule="evenodd">
                    <rect id="3-Neutrals/$neutralsMap/1-white" fill="#FFFFFF" x="0" y="0" width="16" height="16"></rect>
                </g>
            </g>
        </g>
    </g>
</svg>