<?xml version="1.0" encoding="UTF-8"?>
<svg width="38px" height="38px" viewBox="0 0 38 38" version="1.1" xmlns="http://www.w3.org/2000/svg" xmlns:xlink="http://www.w3.org/1999/xlink">
    <title>DDF66263-F010-4CC6-88F8-12A7F9C813DA@0.5x</title>
    <g id="Icons" stroke="none" stroke-width="1" fill="none" fill-rule="evenodd">
        <g id="UI-Mapping-Icons" transform="translate(-257.000000, -1068.000000)"></g>
        <g id="3-Icons/Investments/Europe" fill="#5A287D">
            <path d="M12.1729191,30.8413915 C13.4091442,33.25 15.0017585,35.6362028 16.9618992,38 C11.7608441,37.4398585 7.18347011,34.7623821 4.09847597,30.8413915 L4.09847597,30.8413915 Z M33.901524,30.8413915 C31.0726846,34.4375 26.9853458,36.9805425 22.3188746,37.8095519 C24.2121923,35.5129717 25.7491208,33.182783 26.9519343,30.8413915 L26.9519343,30.8413915 Z M18.7883939,30.8413915 L18.7883939,37.40625 C16.9284877,35.2329009 15.3915592,33.0483491 14.1776084,30.8413915 L14.1776084,30.8413915 L18.7883939,30.8413915 Z M24.947245,30.8413915 C23.7778429,32.9587264 22.3188746,35.0648585 20.5480657,37.1597877 L20.5480657,37.1597877 L20.5480657,30.8413915 Z M28.2438453,19.8738208 C28.0767878,22.9433962 27.2749121,26.0129717 25.8493552,29.0713443 L25.8493552,29.0713443 L20.5480657,29.0713443 L20.5480657,19.8738208 Z M9.1101993,19.8738208 C9.26611958,22.9545991 10.0123095,26.0241745 11.3376319,29.0713443 L11.3376319,29.0713443 L2.85111372,29.0713443 C1.19167644,26.3714623 0.167057444,23.2346698 0.011137163,19.8738208 L0.011137163,19.8738208 Z M37.9888628,19.8626179 C37.8440797,23.2346698 36.8194607,26.3714623 35.1488863,29.0601415 L35.1488863,29.0601415 L27.7983587,29.0601415 C29.112544,26.0241745 29.869871,22.9545991 30.0146542,19.8626179 L30.0146542,19.8626179 Z M18.7883939,19.8626179 L18.7883939,29.0601415 L13.2754982,29.0601415 C11.8499414,26.0129717 11.0480657,22.9433962 10.8810082,19.8626179 L10.8810082,19.8626179 L18.7883939,19.8626179 Z M35.1154748,8.83903302 C36.8083236,11.5501179 37.8440797,14.709316 38,18.0925708 L38,18.0925708 L30.0480657,18.0925708 C30.0369285,17.7788915 30.0369285,17.4764151 30.0146542,17.1627358 C29.8253224,14.0595519 29.0568581,11.2700472 28.0545135,8.83903302 L28.0545135,8.83903302 Z M26.0943728,8.83903302 C27.1969519,11.2700472 28.0545135,14.115566 28.2438453,17.285967 C28.2661196,17.5548349 28.2661196,17.8237028 28.2661196,18.0925708 L28.2661196,18.0925708 L20.5480657,18.0925708 L20.5480657,8.83903302 Z M18.7883939,8.83903302 L18.7883939,18.0925708 L10.8587339,18.0925708 C10.8587339,17.8237028 10.869871,17.5548349 10.8810082,17.285967 C11.07034,14.1267689 11.9279015,11.28125 13.0304807,8.83903302 L13.0304807,8.83903302 L18.7883939,8.83903302 Z M11.0814771,8.83903302 C10.0679953,11.2700472 9.31066823,14.0595519 9.12133646,17.1627358 C9.09906213,17.4652123 9.09906213,17.7788915 9.08792497,18.0925708 L9.08792497,18.0925708 L-3.55271368e-15,18.0925708 C0.155920281,14.709316 1.19167644,11.5501179 2.88452521,8.83903302 L2.88452521,8.83903302 Z M22.5973036,0.201650943 C27.130129,1.0754717 31.0838218,3.57370283 33.8569754,7.05778302 L33.8569754,7.05778302 L27.2415006,7.05778302 C25.7379836,4.03301887 23.9337632,1.70283019 22.5973036,0.201650943 Z M20.5480657,0.61615566 C21.6840563,1.80365566 23.5885111,4.03301887 25.2145369,7.05778302 L25.2145369,7.05778302 L20.5480657,7.05778302 Z M18.7883939,0.403301887 L18.7883939,7.05778302 L13.9103165,7.05778302 C15.647714,3.84257075 17.6969519,1.52358491 18.7883939,0.403301887 L18.7883939,0.403301887 Z M16.7168816,8.8817842e-16 C15.3692849,1.47877358 13.4536928,3.88738208 11.8833529,7.05778302 L11.8833529,7.05778302 L4.14302462,7.05778302 C7.18347011,3.23761792 11.6494725,0.61615566 16.7168816,8.8817842e-16 Z" id="Combined-Shape" fill-opacity="0.5"></path>
            <polyline id="Fill-3972" points="33.9917633 16.4915041 33.9334423 16.3815912 33.8093606 16.2753894 33.75549 16.2793028 33.7010216 16.3345628 33.5849773 16.4065561 33.4183837 16.4185662 33.3099119 16.4263256 33.2517902 16.4305089 33.0731736 16.3796345 33.0695867 16.3284903 33.003029 16.2112229 32.9526789 16.2148665 32.8980112 16.2187799 32.7826312 16.3491369 32.7281628 16.404397 32.6238758 16.4118864 32.5035139 16.3098004 32.3789672 16.1364633 32.3677414 15.9752038 32.3013165 15.9206185 32.2390764 15.8657633 32.2353566 15.8111105 32.1106107 15.6971493 32.0946687 15.4688895 32.1407676 15.2921788 32.0785275 15.2372561 31.9659373 15.1860444 31.9535823 15.0090638 31.9456777 14.8945628 31.8916079 14.9542086 31.8956598 15.0132471 31.8000744 15.2572955 31.691669 15.4386618 31.525009 15.5097779 31.359146 15.581029 31.2502092 15.6446556 31.0640867 15.4243576 31.0520638 15.2516952 31.1677095 15.1875288 31.3271292 15.1212033 31.3889708 15.1716728 31.4543993 15.2227495 31.5008967 15.163576 31.4883424 14.9832218 31.542678 14.8641327 31.589109 14.7544897 31.5270681 14.6395164 31.4108246 14.5972111 31.4064406 14.5339218 31.3449311 14.538375 31.2912598 14.6057802 31.1784039 14.6138769 31.1280539 14.6175204 31.0701978 14.6723081 30.8494015 14.8075907 30.737542 14.8156199 30.6677295 14.650582 30.5420536 14.4730616 30.4801456 14.4224571 30.5343483 14.3627439 30.5966548 14.3582907 30.5846319 14.1856958 30.5101032 14.0132359 30.3775192 13.8482654 30.4316554 13.7258701 30.485991 13.6669665 30.5482311 13.6624459 30.5438471 13.5991566 30.4744331 13.5011864 30.4703147 13.4423503 30.4583582 13.269553 30.4539078 13.2063312 30.3334795 13.2149677 30.3258406 13.10465 30.2679845 12.9902839 30.2050137 12.9354962 30.1429065 12.8213326 30.0805999 12.8257858 30.0767473 12.7703908 30.0191569 12.7195839 29.9648214 12.7783525 29.8981308 12.6096036 29.7656132 12.3819511 29.6964649 12.165499 29.6301728 12.0515378 29.4477037 11.9461456 29.4356144 11.7725387 29.3737064 11.721192 29.2567322 11.6075007 29.2492926 11.5008265 29.1824691 11.3792409 29.1239488 11.3284341 29.058321 11.2739162 28.9846559 11.0532809 28.9304532 11.0022716 28.8101577 10.9515997 28.8061058 10.8925611 28.6935156 10.8413495 28.6313419 10.7866292 28.5520306 10.4993309 28.490654 10.5037166 28.4826166 10.3891482 28.4165903 10.2796401 28.4204429 10.3342929 28.3578707 10.2245825 28.3493683 10.1022547 28.2919772 10.0549564 28.2288071 9.93741917 28.1605224 9.84295755 28.0443452 9.85125668 28.0399612 9.78870959 28.0361086 9.73324712 28.1522857 9.72488052 28.2094111 9.65808265 28.1732095 9.1383413 28.2279436 9.13442789 28.269592 8.95704245 28.2531851 8.72095586 28.1250515 8.44593759 28.1718146 8.32745572 28.2720497 8.20175429 28.3220012 8.07949396 28.2520559 7.914456 28.2400329 7.74179365 28.1773943 7.63120607 28.0642727 7.5723025 28.1109694 7.45375316 28.0563017 7.45766657 27.9910061 7.40746697 27.9286331 7.41192016 27.8827999 7.52945741 27.8323835 7.53310093 27.7698112 7.42332303 27.6994673 7.36468934 27.6491836 7.36826539 27.587807 7.32555524 27.5801682 7.21543998 27.5221793 7.21955581 27.4024816 7.2281923 27.3559842 7.28648861 27.2934784 7.29100928 27.2431283 7.29458532 27.1808882 7.17691313 27.1116071 7.13049199 27.1732494 7.06679786 27.1685332 7 27.102839 7.00472308 26.8740053 7.02111892 26.6614457 7.16281136 26.5487891 7.22232218 26.3823283 7.23426483 26.2626971 7.24290132 26.3254686 7.30551588 26.3363623 7.4625246 26.2826246 7.53013213 26.344599 7.58060163 26.4102268 7.63518696 26.4690128 7.75387124 26.5851899 7.74557211 26.6437767 7.79718864 26.5355705 7.91904414 26.4928593 8.09656452 26.5476599 8.09265111 26.6134205 8.15074501 26.5048822 8.26929435 26.3930227 8.27732359 26.2691403 8.17550745 26.3229445 8.10877706 26.256586 7.99488333 26.1980657 7.94333427 26.1481806 8.00271015 26.0982291 8.12490301 26.1025467 8.1874501 26.1143704 8.35667135 26.0680058 8.47845938 25.8979581 8.49067191 25.7775962 8.49930841 25.7816481 8.55834692 25.7388705 8.78296317 25.7429224 8.84193421 25.6469385 8.96736576 25.6508575 9.0228957 25.6551752 9.08537532 25.5842334 9.02768625 25.5298978 8.97573236 25.4303269 9.16087714 25.41392 8.92479055 25.4602846 8.86224346 25.4056833 8.80684847 25.3986423 8.7043576 25.3405205 8.70860838 25.2781475 8.71306157 25.2234799 8.65429294 25.1733955 8.8235142 25.2349714 8.81912848 25.2431416 8.93700309 25.1816322 8.94145628 25.1775803 8.88255271 25.1228462 8.88646612 25.1269645 8.94536969 25.1310164 9.00440821 25.259615 9.17315715 25.1433715 9.18152376 25.0855154 9.12633118 25.0811313 9.06378409 25.0231424 9.13078437 24.9727259 9.24515041 24.9189218 9.24899635 24.8228714 9.49743042 24.765281 9.55734608 24.714466 9.61597976 24.7731856 9.67103739 24.838747 9.72555524 24.730873 9.85199888 24.6731497 9.91191453 24.6262538 9.91528816 24.7429623 10.0254709 24.7583064 10.2458364 24.7626905 10.308316 24.7046351 10.3639134 24.6040014 10.4348271 24.4337545 10.5062806 24.3875228 10.5689626 24.1973483 10.4640427 24.0844924 10.4084453 23.9716366 10.416542 23.8520054 10.3736969 23.8396503 10.1967838 23.8366612 10.1533989 24.0065761 10.0783019 24.002657 10.0228395 24.1154464 10.0146753 24.1614789 9.9486871 24.0491544 9.9009165 23.9903684 9.84585887 23.9281283 9.79100365 23.8120176 9.79930278 23.7500432 9.68527411 23.6953755 9.68918752 23.5252614 9.76057352 23.4133355 9.76860276 23.4174538 9.82764127 23.2970255 9.83627776 23.4215057 9.88667979 23.4794946 9.94180489 23.5414026 9.993219 23.5457202 10.0555637 23.5539569 10.1736407 23.6150014 10.2129098 23.6189205 10.2684397 23.6693369 10.2647962 23.6273564 10.3898229 23.6308769 10.4410346 23.6434977 10.6223334 23.7597412 10.6140343 23.868213 10.6062075 23.9222829 10.6572168 23.9264012 10.7162553 23.9965459 10.7748215 24.0001328 10.8261681 24.0626387 10.8852741 24.0083695 10.9440427 23.9505799 11.0633343 24.0826326 11.17237 24.141485 11.2274951 24.0327475 11.2946303 23.9628685 11.2403149 23.862899 11.3067754 23.7424043 11.3154793 23.7999947 11.1926792 23.8547288 11.1887658 23.7259974 11.0794602 23.6796992 11.1421423 23.5635885 11.1504414 23.4431602 11.0997695 23.4472786 11.158808 23.3975928 11.2809334 23.3514275 11.457779 23.2465426 11.5166826 23.1879558 11.5767332 23.1961925 11.6947428 23.1502929 11.8123475 23.0966216 11.8798201 23.0505892 11.9458757 23.1045262 11.9934439 23.2870618 12.0990385 23.3995855 12.1501153 23.4035046 12.2056452 23.5277855 12.3153556 23.6023142 12.484307 23.6061005 12.5390273 23.5398084 12.4888277 23.4818859 12.4929435 23.4275504 12.5517796 23.3776653 12.5005004 23.2567056 12.5640596 23.0906434 12.5210796 22.9700822 12.4661569 22.8539051 12.474456 22.8501189 12.4198032 22.7953184 12.4237841 22.6211523 12.4362665 22.4507061 12.3926792 22.4584114 12.502862 22.401286 12.5706044 22.4050722 12.6251898 22.5292203 12.680045 22.5832902 12.7311217 22.761641 12.7775429 22.7575226 12.7185718 22.815578 12.714456 22.9391947 12.8127636 23.01007 13.040551 22.8982769 13.1121394 22.8473955 13.1707057 22.7274321 13.1244195 22.611255 13.1327861 22.560905 13.1364296 22.4330371 13.0270565 22.3743175 12.9719314 22.3162621 12.9168063 22.2664435 13.0389992 22.2043362 12.9841439 22.0336907 12.9370481 22.0262511 12.8303739 21.9681293 12.8345572 21.964011 12.7755862 21.9602248 12.7208659 21.8976525 12.661625 21.8938663 12.6070396 21.8233895 12.4935507 21.7648692 12.4419342 21.7606844 12.3829632 21.8113002 12.3199438 21.8033292 12.2055777 21.7442775 12.1468766 21.7404913 12.0914141 21.6831002 12.0441158 21.6283661 11.9852123 21.4498824 11.9979646 21.3916942 12.0022154 21.3414106 12.0058589 21.2711331 11.9472927 21.3369601 11.9425021 21.3331739 11.8877818 21.2672804 11.8925049 21.2169968 11.8961484 21.212812 11.8371774 21.0966349 11.845544 21.0421665 11.7900815 20.9650472 11.6804386 21.0268224 11.5697835 20.9576076 11.574709 20.9031392 11.519314 20.9535557 11.5156705 21.022704 11.510745 21.0731205 11.5071015 21.1972022 11.6124262 21.2511392 11.6599944 21.3170327 11.6552038 21.3134457 11.6041271 21.4254381 11.6474445 21.5419473 11.6948777 21.6078408 11.6901546 21.6581909 11.6865111 21.7161133 11.7417712 21.8330876 11.7333371 21.9493311 11.7249705 22.1199766 11.7720663 22.1739136 11.7088445 22.2278506 11.6456902 22.285906 11.7008153 22.2900243 11.7598538 22.406135 11.7514872 22.5146068 11.7437279 22.6307839 11.7353613 22.738658 11.6089851 22.7933921 11.6050717 22.9057165 11.5411751 22.9559337 11.486185 22.9522139 11.4315322 23.0104021 11.3680405 23.0606858 11.364397 23.0566339 11.3053584 23.0524491 11.2463199 23.1106373 11.2422041 23.1482338 11.0057802 23.0862593 10.8917515 23.0782884 10.777183 23.0201002 10.7813663 23.0121956 10.667675 22.9656982 10.7259039 22.8996054 10.6757717 22.8913688 10.5578296 22.7828969 10.565589 22.7213875 10.5699747 22.7170034 10.5066179 22.5425717 10.4677537 22.4299151 10.5272645 22.3760445 10.4796964 22.3135387 10.4213326 22.1933761 10.3707956 22.197428 10.4296992 22.1393727 10.3746416 22.0164867 10.2840259 21.8498931 10.2959685 21.6631063 10.1907787 21.4999668 10.1397695 21.3804684 10.211088 20.9849083 10.2394265 20.9344918 10.24307 20.8609594 10.1856508 20.752554 10.2561597 20.7482364 10.1937475 20.6940337 10.1417936 20.6396982 10.2015069 20.5702842 10.0913916 20.5156165 10.095305 20.4458704 9.98168119 20.3989744 9.98505482 20.3490229 10.1072477 20.2909675 10.1114985 20.2246091 9.99760472 20.1708714 10.0014507 20.18316 10.1784987 20.0661193 10.1868653 20.0040121 10.1320776 19.9114158 10.1386899 19.941307 9.95867304 19.930679 9.96724206 19.8145019 9.97560866 19.7564465 9.97972449 19.8107157 9.92095586 19.8025454 9.80287883 19.740571 9.75153219 19.7986263 9.74741636 19.8526962 9.68426202 19.8444595 9.56618499 19.7863377 9.57036829 19.7822194 9.51132977 19.6659758 9.51969637 19.5574376 9.5868316 19.5492673 9.46882204 19.4329574 9.47712117 19.3709165 9.4224009 19.2629097 9.54864211 19.267028 9.60768063 19.2173422 9.67056508 19.1509838 9.55667135 19.1469318 9.49763284 19.2009353 9.43454597 19.1970162 9.37901602 19.1888459 9.26100647 19.1306577 9.26518977 19.0219866 9.39156593 19.0258393 9.44716334 18.9136477 9.51443351 18.9259363 9.69148159 18.930121 9.7505201 18.8679473 9.69566489 18.8638954 9.63662637 18.8059729 9.58150127 18.8017882 9.52246275 18.7977362 9.46349171 18.7938172 9.40796177 18.7356954 9.41214507 18.7897653 9.34899072 18.7275251 9.29413551 18.5614629 9.4246275 18.4992893 9.36983975 18.4488728 9.43272421 18.452659 9.48832162 18.5694339 9.53912848 18.4027739 9.61037953 18.3405338 9.55559179 18.2865304 9.61874613 18.294767 9.73682317 18.2365789 9.74100647 18.2988854 9.79586168 18.1907457 9.91866179 18.1246529 9.80834411 18.0749671 9.87109362 18.0829381 9.98566207 18.0280712 10.0489514 17.9658975 9.99409615 17.9078421 9.99827945 17.9119605 10.0572505 17.8497204 10.0023953 17.7915986 10.0065786 17.7419128 10.069463 17.7457654 10.1241158 17.6876436 10.1282991 17.6339059 10.1957717 17.6418105 10.309463 17.7038513 10.3608097 17.7122873 10.4823278 17.6498479 10.423964 17.5876742 10.3691088 17.5296189 10.3732921 17.4833871 10.4987236 17.4133753 10.3816587 17.3627596 10.4446106 17.3709962 10.5626877 17.433967 10.6766489 17.4376868 10.7313691 17.3791665 10.6805623 17.3130073 10.5668035 17.321244 10.6847456 17.2710268 10.8026202 17.2088531 10.747765 17.2011478 10.6375822 17.1468787 10.6972955 17.1589016 10.8699578 17.1050974 10.8738038 17.0428573 10.8783244 16.9929058 10.9377003 17.051094 10.9971437 17.0014082 11.0600281 16.9462091 11.1188642 16.9503275 11.1779702 17.0132318 11.2291819 16.9584977 11.2958448 16.7842653 11.3083947 16.7799477 11.2459826 16.7261435 11.3125105 16.7300626 11.368108 16.7382993 11.486185 16.7420191 11.5407703 16.6964516 11.6626258 16.6806425 11.4344335 16.6762584 11.3719539 16.6225207 11.4386168 16.5643989 11.4428001 16.50641 11.4469159 16.4521409 11.5066967 16.5102626 11.5025134 16.5720378 11.5529829 16.5764218 11.6162721 16.5140489 11.5570987 16.4603776 11.6245713 16.3978717 11.5654653 16.33975 11.5696486 16.3479202 11.6875907 16.2976366 11.7549283 16.4641638 11.6792915 16.5266696 11.7385325 16.5305222 11.7931178 16.4142787 11.8014844 16.3561569 11.8056677 16.3055412 11.8685522 16.3097259 11.9275907 16.422449 11.9194265 16.4304199 12.0339949 16.3722982 12.0381108 16.3176305 12.0420917 16.2637599 12.1053135 16.2097565 12.1684678 16.089461 12.1177959 16.035524 12.1809502 16.0396424 12.2398538 16.043495 12.2954512 15.9896909 12.2992972 15.9345582 12.3582682 15.9979275 12.4173742 15.9430606 12.480596 15.8268171 12.4889626 15.8890572 12.5436829 15.9512309 12.5985381 16.0060978 12.5352488 16.0140688 12.6490751 15.8969617 12.6575091 15.8389064 12.661625 15.8429583 12.7205285 15.9049327 12.7718752 15.8509293 12.8351645 15.7928739 12.8392803 15.7391362 12.9059432 15.6848671 12.9655215 15.7473729 13.0239528 15.7509598 13.0750295 15.69689 13.1382513 15.6390339 13.0830588 15.635447 13.031982 15.5808457 13.1466179 15.5849641 13.2056565 15.6472042 13.2011358 15.6554409 13.3190779 15.5972527 13.3826371 15.5433821 13.386483 15.5513531 13.5010514 15.4974161 13.5642058 15.4392943 13.5683891 15.4432134 13.623919 15.5012687 13.6197357 15.5055863 13.6821479 15.5097711 13.7411189 15.4554355 13.8008996 15.3387935 13.7534664 15.3347415 13.6944279 15.2723022 13.636199 15.2186309 13.7027945 15.1646274 13.7659488 15.103118 13.7703346 15.0483839 13.7743154 15.0564213 13.8888839 14.997901 13.9479899 14.9557212 14.0695755 14.8975994 14.0736913 14.8394776 14.0778746 14.8438617 14.1412988 14.851567 14.2514816 14.7895925 14.2000675 14.7354563 14.2597807 14.6817185 14.3263762 14.6192127 14.2681473 14.5697926 14.3344054 14.5112723 14.3943885 14.4574681 14.3983019 14.4656384 14.516379 14.4035311 14.4614563 14.3454094 14.4657071 14.4076495 14.5204948 14.4117678 14.5795333 14.3535796 14.5837166 14.2914059 14.5288614 14.2408566 14.5918133 14.1827348 14.5959966 14.1212918 14.6004498 14.0666242 14.6042958 14.0707425 14.6631993 14.1333147 14.7729772 14.0786471 14.7768906 14.0162077 14.7813438 13.8960451 14.7308069 13.8456286 14.7344504 13.7916252 14.7975373 13.8539317 14.8532696 13.85805 14.9123081 13.7999283 14.916424 13.6836847 14.9247906 13.6304784 15.0471184 13.6223081 14.9292437 13.567574 14.9330897 13.513637 14.996244 13.4557145 14.9411864 13.3933416 14.9456396 13.339471 14.949553 13.3477077 15.0674951 13.4053645 15.1182345 13.4677374 15.1137138 13.4717894 15.1727523 13.4095492 15.177273 13.3597306 15.24009 13.2393023 15.2487939 13.2431549 15.3043239 13.3099119 15.3622828 13.3137646 15.4178128 13.1937348 15.370582 13.197521 15.4261794 13.2017058 15.4851504 13.2633481 15.5949283 13.3838428 15.5862918 13.3881604 15.6496486 13.3301715 15.6537644 13.2096104 15.5988417 13.2177806 15.7169188 13.2795558 15.8274389 13.3460471 15.8820242 13.2877924 15.9455159 13.2298035 15.8903233 13.1758665 15.9535451 13.1799849 16.0125162 13.2960291 16.063458 13.2421585 16.0673039 13.1840368 16.0715547 13.1882215 16.1305257 13.2503952 16.1853809 13.308052 16.2370649 13.4284803 16.2284285 13.5408048 16.1644644 13.4325987 16.2873995 13.378396 16.3462356 13.3204071 16.4140455 13.4490056 16.5234186 13.3909503 16.5275344 13.3285773 16.5320551 13.2785594 16.5905538 13.2166514 16.5400843 13.1619837 16.5439978 13.108246 16.6586337 13.1125636 16.7209784 13.0658669 16.8394602 13.1248522 16.8980939 13.2286743 16.7126118 13.3405338 16.7045825 13.3444529 16.7602474 13.3528888 16.8816981 13.2990847 16.8856115 13.3071221 16.9999775 13.2527865 17.0589486 13.2490003 17.0042283 13.1981188 17.062862 13.2021708 17.1217655 13.2145922 17.2996908 13.3352198 17.4052179 13.513637 17.451774 13.4011797 17.5749789 13.5259256 17.6287546 13.5754786 17.562429 13.5837153 17.6803711 13.7579477 17.6678887 13.873992 17.6595221 13.9863165 17.5956255 13.9902355 17.6512229 14.0948547 17.5878662 14.1527772 17.5210008 14.1986104 17.4025864 14.2569314 17.3390947 14.4270456 17.2675063 14.4232593 17.212921 14.4737422 17.1490919 14.5899858 17.1407928 14.5941706 17.2005735 14.6559457 17.2511105 14.768403 17.1880911 14.7600999 17.0693393 14.8637891 16.9432331 14.8555525 16.8252235 14.7939102 16.7782626 14.9016513 16.6483778 14.9557876 16.5886646 15.0095253 16.5220692 15.0676471 16.5179533 15.0758838 16.6358954 15.0218804 16.6990498 14.9637586 16.7032331 14.9716631 16.8168569 15.0297849 16.8127411 15.2046152 16.918808 15.1085648 17.044307 15.1273631 17.0428901 15.1043136 17.0445769 15.1125503 17.1633286 15.116403 17.2180489 15.1245732 17.3361259 15.1368618 17.5130391 15.1407809 17.568569 15.1989027 17.5643857 15.2070729 17.6824627 15.2533046 17.6198482 15.3197959 17.674366 15.2656597 17.7967613 15.2695123 17.8515491 15.2735642 17.9104526 15.2774833 17.9659826 15.2897719 18.1430981 15.3561968 18.197481 15.2979422 18.2610402 15.3059131 18.3756087 15.372338 18.430194 15.4270721 18.4262131 15.4393607 18.6031937 15.5628446 18.64921 15.5710813 18.7672196 15.5129595 18.7713354 15.5170114 18.8303739 15.4593546 18.890357 15.4634065 18.9493281 15.4675249 19.0083666 15.532887 19.0585662 15.5373374 19.1218555 15.599179 19.1723925 15.6033638 19.231431 15.611534 19.3494405 15.5575306 19.4125274 15.619505 19.4638741 15.6736413 19.4042283 15.7356157 19.4555749 15.9026743 19.387765 15.9644494 19.4391116 16.0183864 19.4352657 16.0806929 19.4308125 16.06867 19.257273 16.0604334 19.139196 16.1104513 19.0807647 16.1685731 19.0765814 16.2266284 19.0723981 16.2802333 19.0049255 16.2221779 19.0091088 16.2764471 18.9503402 16.3885723 18.8829351 16.5054136 18.9338769 16.5092663 18.9884622 16.5672552 18.9842789 16.6834987 18.9759123 16.7416205 18.9717965 16.7337159 18.8581051 16.7295312 18.7991341 16.8301649 18.6175654 16.8222603 18.5038741 16.8762637 18.4407197 16.9300015 18.3732471 16.9261488 18.3185943 16.868027 18.3227776 16.9179121 18.1996401 16.9721813 18.1407366 16.9100076 18.0859488 16.9058228 18.0270453 16.9020366 17.9715153 16.9557743 17.9047849 16.951656 17.8457464 17.0016739 17.7271971 16.9935036 17.6091875 16.9275437 17.4996795 17.0395361 17.4322744 16.861451 17.3892269 16.9152551 17.3226314 17.0356834 17.376677 17.0938052 17.3725611 17.1974945 17.2465898 17.1892578 17.1285128 17.2473795 17.1243295 17.3054349 17.1202137 17.3676086 17.1750689 17.4184236 17.0527411 17.4683751 16.9942423 17.5803675 16.926095 17.4601384 16.8754906 17.4560865 16.8163846 17.5142083 16.7529604 17.5680124 16.7491144 17.6724323 16.5716615 17.609993 16.5132303 17.602022 16.3986618 17.4940151 16.4622884 17.4900961 16.406691 17.4857784 16.3442789 17.4196193 16.2932696 17.3619625 16.2424627 17.3579105 16.1834917 17.3537922 16.1244532 17.2408035 16.1918583 17.1786962 16.1370031 17.116124 16.0778971 17.1082194 15.9642733 17.0463114 15.9128592 17.0421931 15.8538206 16.9842706 15.7986955 17.0380747 15.7947821 17.0920782 15.7316278 17.0717522 15.4401462 17.1298739 15.4360304 17.0680324 15.3854259 17.1217037 15.3179533 17.1137991 15.204262 17.1677361 15.1411077 17.1594994 15.0230981 16.985267 15.035648 16.977296 14.9210796 17.0312994 14.8578577 17.1515284 14.9085297 17.2055319 14.8453753 17.2645172 14.8411245 17.3145351 14.7826258 17.3767752 14.7781726 17.4845828 14.7111049 17.4224091 14.6563846 17.5303495 14.5290638 17.4681094 14.4743435 17.584353 14.4660444 17.6344373 14.3481698 17.6932233 14.40316 17.8052821 14.3358898 17.7465625 14.2807647 17.7971118 14.2178802 17.8551672 14.2136295 17.967226 14.1462918 17.9590557 14.0283497 17.9551366 13.9728198 17.9514168 13.918167 18.0013019 13.7959741 18.0550397 13.7920607 18.1049247 13.6700028 18.1589946 13.606781 18.0969538 13.5553669 18.0928354 13.4963958 18.0846652 13.3784538 18.0764285 13.2603767 18.1306976 13.200731 18.1265793 13.1416924 18.1225273 13.0827889 18.1764643 13.0195671 18.293505 13.011133 18.2735111 12.7240371 18.3272488 12.7201912 18.3892232 12.7714029 18.4970972 12.6451617 18.559603 12.7035254 18.6177248 12.6993421 18.6758466 12.6950914 18.7342341 12.7466404 18.7843184 12.687332 18.7758825 12.5658139 18.7138416 12.5144672 18.6521329 12.4046219 18.648081 12.3456508 18.6398443 12.2277087 18.631674 12.1096317 18.6815591 12.0502558 18.6237031 11.9951307 18.6195847 11.9361597 18.5573446 11.8813045 18.5532263 11.822266 18.5493072 11.766736 18.5452553 11.7078324 18.5487094 11.7075626 18.5527613 11.7664661 18.5566804 11.8219961 18.5607323 11.8810346 18.6230388 11.9359573 18.6270907 11.9949283 18.6857439 12.0499185 18.6351281 12.1094293 18.6433648 12.2274389 18.6515351 12.3453809 18.655587 12.4044195 18.7180928 12.5141299 18.7800008 12.565544 18.7885032 12.6869947 18.8465585 12.6828788 18.9085994 12.734158 19.0247101 12.7257914 19.0290941 12.788271 19.0864188 12.8356368 19.0906035 12.8946753 19.0946555 12.9536463 19.1070105 13.1306269 19.1689185 13.1819736 19.1729704 13.2410121 19.114915 13.2451954 19.0611773 13.2489739 19.0029891 13.2532246 19.0071075 13.3122631 18.9032854 13.4975429 18.907138 13.5530728 18.8569208 13.67088 18.8032495 13.7383525 18.6987632 13.8645938 18.7025494 13.9191116 18.7064685 13.9746416 18.5945425 14.0454203 18.5403398 14.1051335 18.4864693 14.1683554 18.4905876 14.2273264 18.4987579 14.345336 18.3906846 14.4080855 18.3279131 14.3575485 18.2697913 14.3617318 18.2777623 14.4754231 18.1698883 14.6027439 18.1818448 14.7753388 18.2440849 14.8301265 18.2520559 14.944695 18.1982517 15.0112904 18.2021708 15.0668204 18.3223998 15.1174923 18.3262524 15.1720776 18.3547487 15.5817712 18.2426235 15.6491088 18.2549785 15.8260894 18.3829793 15.9869441 18.5537577 15.974664 18.6162635 16.03377 18.7323077 16.0254709 18.7904295 16.0212876 18.856788 16.1351813 18.8644932 16.2453641 18.9269326 16.3035254 18.9853201 16.3552094 19.1596854 16.3426595 19.2176743 16.3385437 19.2676258 16.2164183 19.3175774 16.156975 19.383803 16.2708012 19.4376071 16.2042058 19.4918762 16.1444925 19.6049978 16.0814057 19.7709272 16.0101546 19.8290489 16.0060388 19.8869714 16.0018555 19.8829195 15.942817 19.878469 15.8795952 19.932871 15.8207591 19.999163 15.9344504 20.0494467 15.8673152 20.1617712 15.8042958 20.2118555 15.6856115 20.2738299 15.7369581 20.3933947 15.7283891 20.4436783 15.7247456 20.4979475 15.6650323 20.5552057 15.5249592 20.5641067 15.652415 20.6759661 15.6442508 20.7880913 15.5770481 20.8350537 15.5737419 20.8391057 15.6326455 20.8001143 15.7505876 20.804299 15.8096261 20.9127708 15.8017318 20.9720218 15.8646162 21.0954393 15.9107 21.1420031 15.8524037 21.2547261 15.844307 21.3239409 15.8393815 21.3780771 15.8903908 21.4361325 15.8862075 21.4441699 16.0008434 21.3861145 16.0049592 21.2665498 16.0135283 21.1537603 16.021625 20.9838455 16.0338375 20.9878974 16.092876 20.9332297 16.0968569 20.9291778 16.0378184 20.8717203 16.1012426 20.8755065 16.1558954 20.8796913 16.2149339 20.8837432 16.2738375 20.8367808 16.2771437 20.7704888 16.1633849 20.7164853 16.2266067 20.732693 16.4591172 20.6822765 16.4626933 20.4499887 16.479359 20.395321 16.4833399 20.3330145 16.4285522 20.2792768 16.4323306 20.1671516 16.4996683 20.1630332 16.4406972 20.0469225 16.4489963 19.9965061 16.4526399 19.9419712 16.4566207 19.8803954 16.4610065 19.8263255 16.5241608 19.7717243 16.5280742 19.6599312 16.5361035 19.5974918 16.5406241 19.5436876 16.5444026 19.4812483 16.5489907 19.4850345 16.603576 19.4894849 16.6669328 19.4390685 16.6705089 19.3810131 16.6746922 19.3230242 16.678808 19.2690208 16.7420298 19.272807 16.7966826 19.2769918 16.8557211 19.2810437 16.9147596 19.3971544 16.9064605 19.4004756 16.9540961 19.4045275 17.0131347 19.3465386 17.0172505 19.3503248 17.0719033 19.363012 17.2532021 19.4867615 17.3550857 19.5371116 17.3514422 19.5335246 17.300298 19.5919121 17.2368063 19.6456498 17.2328929 19.7122076 17.2874782 19.6577392 17.4065673 19.6656437 17.5200562 19.6686328 17.5632387 19.6082526 17.5835479 19.6123045 17.6425864 19.6164229 17.701625 19.620342 17.7571549 19.6282465 17.8708462 19.6322984 17.9298847 19.6405351 18.0477593 19.5866645 18.1109812 19.5357831 18.1704245 19.4777277 18.1745403 19.3535796 18.0683385 19.2950593 18.0176666 19.2865569 17.8953388 19.1625417 17.7899466 19.1086711 17.79386 19.0501508 17.7422435 19.0460324 17.6832049 18.9341065 17.6912342 18.8221806 17.7585718 18.7635939 17.8186224 18.7097897 17.8225358 18.6673442 17.9398032 18.6758466 18.0620635 18.6256958 18.1800056 18.570696 18.291133 18.5370186 18.6458364 18.5490415 18.8183638 18.5530934 18.8774023 18.5570125 18.9329997 18.6273564 19.105797 18.6397115 19.2828451 18.7601398 19.2742086 18.7637267 19.3253528 18.8181951 19.3807478 18.8720657 19.3769694 18.9386234 19.4314197 18.9670533 19.4293956 18.9478565 19.4542929 18.8350006 19.4623897 18.7657859 19.4673826 18.7505082 19.4684622 18.7310457 19.4227158 18.6801642 19.3583469 18.595871 19.3810177 18.5378157 19.385201 18.5415355 19.4398538 18.5995908 19.4356705 18.5495065 19.5544223 18.4957023 19.6175766 18.38371 19.6256058 18.379658 19.5665673 18.3758054 19.5110374 18.3716871 19.4520663 18.2053592 19.5791172 18.2094111 19.6381557 18.1144899 19.7277593 18.2176478 19.7560978 18.221434 19.8106832 18.1678291 19.8782907 18.1131614 19.8822041 18.1172798 19.9411751 18.121066 19.9958954 18.1251843 20.0548665 18.0090072 20.0631656 17.9509519 20.0673489 17.9468335 20.0083778 17.8886453 20.0126286 17.7219189 20.0837447 17.656424 20.0292943 17.6525713 19.9745066 17.6441353 19.8521788 17.5856815 19.8015069 17.5814967 19.7424684 17.4071978 19.7549508 17.3533272 19.8181726 17.2952055 19.8222884 17.1792276 19.7712792 17.1252242 19.834501 17.0671024 19.8387518 17.0708886 19.8933371 17.0128333 19.8975204 16.9582985 19.9651954 16.8957926 19.9059545 16.846439 19.9732246 16.7923691 20.036244 16.7382328 20.0951476 16.6801111 20.0993984 16.6260412 20.1624178 16.5679194 20.1666685 16.5721042 20.2256396 16.5174365 20.229553 16.4013258 20.2379196 16.3432041 20.2420354 16.2311453 20.3094405 16.1813266 20.4324431 16.1313751 20.4910093 16.1888991 20.5418161 16.1933495 20.6051729 16.1774076 20.5983582 16.0919852 20.6044982 16.0247632 20.5265673 16.0239661 20.5766995 16.014733 20.4443857 15.8405006 20.4569356 15.8240272 20.2200394 15.7113042 20.2281361 15.6497283 20.2325218 15.6456764 20.1736182 15.5871561 20.1228114 15.5830377 20.0638403 15.5215947 20.0682935 15.4710454 20.131178 15.409536 20.1355637 15.3548683 20.1395446 15.2425438 20.202564 15.1304186 20.2698341 15.0725625 20.2147765 15.0766145 20.2737475 15.0184927 20.2778634 14.902382 20.2861625 14.8442602 20.2904133 14.7232341 20.2398763 14.7854742 20.2353556 14.7817544 20.1806354 14.8363557 20.176722 14.8323037 20.1177509 14.8278533 20.0543942 14.7731856 20.0583076 14.7108791 20.0627608 14.6613925 20.1300309 14.5951669 20.0161372 14.5404992 20.0201181 14.4789234 20.0245038 14.4748715 19.9654653 14.4201374 19.9693787 14.3587608 19.9737644 14.3546424 19.9149283 14.4119671 19.8514366 14.3466714 19.8003599 14.2844313 19.7455046 14.2667623 19.7310655 14.2710799 19.7264099 14.2702828 19.7255328 14.2997091 19.6929435 14.357698 19.6888277 14.2955907 19.6339724 14.2299629 19.5793197 14.2876862 19.5203486 14.3456751 19.5160978 14.2836342 19.4612426 14.2797152 19.4057802 14.3377041 19.4015969 14.3333865 19.3391847 14.3294674 19.2835873 14.3885191 19.2793365 14.4382049 19.2165195 14.500445 19.2119989 14.4963931 19.1529604 14.6043336 19.0860276 14.6543515 18.9672758 14.5922442 18.9124881 14.6461148 18.8491988 14.7042366 18.8450829 14.7082885 18.9041215 14.7664103 18.8999382 14.817026 18.8369862 14.8087893 18.7190441 14.7503354 18.6683722 14.6922137 18.6724881 14.6340919 18.6766714 14.63004 18.6177003 14.5720511 18.6218161 14.5679327 18.5627776 14.6218033 18.4996233 14.6799251 18.49544 14.6179507 18.4440933 14.613633 18.3816812 14.5555777 18.385797 14.5017071 18.3897104 14.5059583 18.4521226 14.3855964 18.4607591 14.3317923 18.464605 14.2766596 18.5243857 14.3397633 18.5792409 14.3438816 18.638212 14.280778 18.5834242 14.2269074 18.6466461 14.2186707 18.528569 14.1570948 18.5329547 14.1108631 18.5956368 14.1150479 18.6546753 14.0569261 18.6587911 13.9905012 18.6042733 13.9365642 18.6081192 13.9325123 18.5490807 13.874457 18.553264 13.8785753 18.6123025 13.8245719 18.6754568 13.8286238 18.7344954 13.8365284 18.8481867 13.8407131 18.9070902 13.8447651 18.9661288 13.8568544 19.1396683 13.802851 19.2028226 13.8650911 19.2576778 13.9231464 19.2534945 13.9272648 19.312533 13.9891727 19.3638797 13.9935568 19.4262918 13.997343 19.4817543 14.0088345 19.6467922 13.9936232 19.6478043 14.0059118 19.8247849 14.0635022 19.8764689 14.067687 19.9355075 13.9554953 20.0027776 13.9017576 20.0066236 13.9058095 20.0656621 13.9596801 20.0617487 13.9633999 20.1164689 13.9678504 20.1798257 14.0881458 20.2304301 14.0381279 20.2889963 14.0961168 20.3441215 13.9798733 20.3524881 13.8679473 20.3605173 13.8720657 20.4194883 13.8802359 20.5374979 13.8844207 20.5974136 13.8301516 20.6561822 13.8339378 20.7109024 13.76831 20.6057127 13.7641253 20.5458645 13.7600733 20.4868934 13.7019516 20.4910093 13.7060035 20.5500478 13.6513358 20.5539612 13.6472839 20.4949902 13.6978332 20.4319708 13.5767407 20.3813663 13.4648812 20.389463 13.3486376 20.3977622 13.2905159 20.4019455 13.2946342 20.4609165 13.2407636 20.5242058 13.2448155 20.5831768 13.3028045 20.5789935 13.3070557 20.6388417 13.3688972 20.6893112 13.3614576 20.6974079 13.3033359 20.6469384 13.2456126 20.7060444 13.190945 20.7100253 13.1747373 20.4774473 13.1166155 20.4816306 13.0586266 20.4857464 13.0091401 20.5529491 12.896882 20.6169131 12.8886453 20.4980264 12.8307228 20.5657689 12.7769187 20.5696823 12.7187969 20.5737981 12.6056753 20.6377622 12.5516719 20.7009165 12.5554581 20.7555693 12.5678132 20.9325499 12.5759834 21.0505595 12.4720949 21.1730897 12.4139731 21.177273 12.3558514 21.1814563 12.3478804 21.0670228 12.4016181 21.0002924 12.3435628 21.0044757 12.3977655 20.9447624 12.4517689 20.8816081 12.447717 20.8227045 12.3854769 20.7678493 12.2726874 20.775946 12.2194811 20.8982738 12.2274521 21.0128423 12.177102 21.0792353 12.1809547 21.1348327 12.1194452 21.1392184 12.1235636 21.198122 12.0729478 21.2610739 11.9568371 21.2694405 11.9650738 21.3874501 12.0230627 21.3832668 12.0268489 21.4379871 11.9191742 21.5049199 11.9112696 21.391296 11.8488303 21.3958167 11.8526829 21.450402 11.8647722 21.6239415 11.9271452 21.6194209 11.9820786 21.6748159 11.9345848 21.6781895 11.8803821 21.7370256 11.8845004 21.7960641 11.7682569 21.8043632 11.7102015 21.808614 11.656331 21.8123925 11.6522126 21.7534214 11.5903046 21.7029519 11.5314522 21.7072027 11.5270681 21.6438459 11.4689464 21.6480967 11.4152751 21.7155018 11.3528357 21.6563958 11.3572197 21.7196177 11.2491464 21.7823672 11.2532648 21.8414057 11.2577152 21.904695 11.2607044 21.9482148 11.2560546 21.9441664 11.2522684 21.8893787 11.2440317 21.7714366 11.1277882 21.7797357 11.0697993 21.783919 11.0117439 21.7881023 10.9536221 21.7922856 10.899818 21.7961316 10.8458146 21.8593534 10.8499329 21.918257 10.8537191 21.9729772 10.8031698 22.0357942 10.8072217 22.0949002 10.8196432 22.2727579 10.7582002 22.2771437 10.7000784 22.281327 10.6458093 22.3401631 10.5868904 22.3443464 10.4790828 22.4114141 10.3667583 22.4753107 10.2506476 22.4836773 10.1378582 22.491774 10.1422422 22.5542536 10.2002976 22.5500703 10.3169397 22.5973686 10.3790469 22.6522913 10.321058 22.6564071 10.3254421 22.7189542 10.2082686 22.6645038 10.0920915 22.6728704 9.97598076 22.6811695 9.97186242 22.622131 9.85568531 22.6304976 9.73984031 22.5831319 9.61941201 22.5290188 9.62372962 22.591431 9.50230494 22.5373854 9.55743759 22.4776047 9.49433396 22.4227495 9.49054774 22.3681642 9.54541469 22.3048749 9.4864294 22.3091257 9.43262524 22.3129716 9.37031871 22.2573742 9.31232979 22.2615575 9.31651455 22.3212707 9.25819351 22.3848299 9.26616449 22.4984538 9.27001714 22.5540512 9.34062679 22.6674726 9.28230574 22.7310318 9.28668978 22.7935114 9.2902103 22.8446556 9.35703373 22.9035592 9.36081995 22.9582794 9.24464283 22.9665786 9.17848365 22.9164464 9.12474592 22.9202249 9.07001182 22.9242058 9.12036188 22.8568681 9.00757244 22.8649649 8.8913289 22.8733315 8.82975303 22.8263705 8.83327355 22.8775148 8.72141405 22.885544 8.71789353 22.8343998 8.70939115 22.7128142 8.64695176 22.7173348 8.59314761 22.7211808 8.58929497 22.6657183 8.46886666 22.6115378 8.41512893 22.6782682 8.41898157 22.7336632 8.3061257 22.7417599 8.30227306 22.6863649 8.18609594 22.6947315 8.12378941 22.6991847 8.06566764 22.640551 8.00767872 22.7074838 7.95719581 22.7111274 7.89920689 22.7152432 7.84108512 22.719494 7.84493776 22.774889 7.90305953 22.7707057 8.01153136 22.7628788 8.0156497 22.8219173 8.01996732 22.8844644 7.96955083 22.888108 7.97307135 22.9392522 7.91508243 22.943368 7.85696066 22.9476188 7.80328936 23.0151588 7.86141113 23.0109755 7.92331912 23.061445 7.9894783 23.1752713 7.98535996 23.1163003 8.10233417 23.1671746 8.09821583 23.108271 8.15201998 23.1043576 8.1560719 23.1632612 8.28028642 23.269463 8.34259296 23.2650098 8.34664488 23.3240484 8.40044903 23.3201349 8.40868572 23.4381445 8.52579278 23.4297104 8.64190347 23.4213438 8.58371528 23.484903 8.64602181 23.4803823 8.70361218 23.5311892 8.65804472 23.6538544 8.71184887 23.6500084 8.7784066 23.7045263 8.78252494 23.7634973 8.832875 23.7599888 8.83666122 23.8145741 8.73210846 23.9407478 8.7362268 23.9997189 8.80663717 24.1097667 8.85692081 24.1061906 8.86515749 24.2242002 8.93078527 24.2787855 8.93457149 24.3334383 9.05480053 24.3840427 9.10880395 24.3209559 9.11704064 24.4388305 9.06303721 24.5020523 9.12115898 24.497869 9.06715555 24.5610908 9.07924488 24.7345628 9.02524145 24.7978521 9.0293598 24.8568232 9.08741514 24.8526399 9.09153348 24.9115434 9.09538613 24.9670734 9.15762624 25.0219286 9.17370106 25.2536295 9.11179307 25.203025 9.10362281 25.0851504 9.0413827 25.0302952 9.03726436 24.9712567 8.97542279 24.9198426 8.97130445 24.860939 8.91391336 24.9242958 8.9297889 25.1524881 8.88382288 25.2194883 8.89172745 25.3331122 8.82928806 25.3376328 8.94619585 25.3885072 8.89969843 25.4476132 8.78345489 25.4559798 8.78777251 25.5185268 8.79169158 25.5740568 8.73350338 25.637481 8.73762172 25.6965195 8.68381757 25.7003655 8.69172213 25.8139893 8.63360036 25.8182401 8.57866699 25.8814619 8.58285175 25.9404329 8.47497775 26.0676188 8.37407835 26.1856283 8.3629854 26.186438 8.29649409 26.1309081 8.18802227 26.1388024 8.06785966 26.0881979 8.00216545 26.0335451 7.9475642 26.037526 7.88598834 26.0419117 7.77326531 26.0500084 7.7110252 25.9952207 7.6450653 25.8857127 7.53227585 25.8938094 7.47003574 25.8388867 7.41623158 25.8427326 7.30012089 25.8510992 7.23781436 25.8555524 7.18009113 25.8040034 7.11771817 25.8084566 7.06398044 25.81237 7.00492873 25.7538038 6.93930094 25.699151 6.88463327 25.7031319 6.76460351 25.655901 6.70309407 25.6603542 6.58592058 25.6059713 6.58240006 25.5546922 6.46628937 25.5630588 6.40378356 25.5038853 6.34911588 25.5078662 6.23718996 25.5158954 6.17109721 25.4657633 6.10885709 25.4109081 6.00104951 25.4779758 5.93057272 25.364352 5.87265022 25.3093618 5.86467923 25.1947259 5.75235476 25.2586224 5.69423299 25.2628057 5.63239143 25.2113916 5.63624407 25.266989 5.58150997 25.270835 5.52345463 25.2750857 5.46533286 25.2792016 5.52750654 25.3341243 5.47350312 25.3971437 5.41963254 25.4603655 5.41551419 25.401327 5.35334051 25.3466067 5.29521874 25.35079 5.23709697 25.3549058 5.17831095 25.2998482 5.12842586 25.4219736 5.0663186 25.3671858 4.95831175 25.4934945 5.02055186 25.5483497 5.02433808 25.6030025 5.07867363 25.5441664 5.08245985 25.5988192 5.02872212 25.6662918 5.14483281 25.6579927 5.14841975 25.7091369 5.09474845 25.7757998 5.09860109 25.8313298 5.04459766 25.8944841 5.10271943 25.8903683 5.10710348 25.9528479 5.05276792 26.0124262 4.99085994 25.9612145 4.93672366 26.0207928 4.94462822 26.1344166 4.95226708 26.1338769 4.9557876 26.185156 4.96023807 26.2485128 4.96402428 26.3030981 4.91433847 26.3659826 4.9266935 26.5438403 4.87242438 26.6026764 4.82180862 26.6656283 4.8300453 26.7836379 4.77238851 26.8435536 4.72183917 26.9065055 4.73007586 27.0245825 4.67613885 27.0877369 4.62625377 27.2098622 4.57165252 27.2651223 4.51791479 27.3318527 4.52176743 27.3873152 4.47208162 27.4502671 4.41801177 27.5726624 4.36420762 27.5765083 4.24710055 27.5849424 4.19289785 27.6437785 4.2053193 27.8216362 4.15550064 27.8845207 4.10156364 27.947675 4.1094682 28.0613663 4.22139413 28.0534046 4.28350139 28.1081923 4.33823549 28.1042114 4.34640575 28.222221 4.35052409 28.2812595 4.29990833 28.3441439 4.24550636 28.3994715 4.24995682 28.4628957 4.19980604 28.5213944 4.25812708 28.5808378 4.21209464 28.698375 4.21621298 28.7574136 4.15822406 28.7615969 4.09970375 28.82158 4.10402136 28.8839921 4.05818819 29.0024065 4 29.0658982 4.00405192 29.1248018 4.06642488 29.1203486 4.12016261 29.1165027 4.17848365 29.0531459 4.24059092 29.1077987 4.24444356 29.1633961 4.29838056 29.1594827 4.35636948 29.1553669 4.4151555 29.210492 4.53551738 29.2610964 4.60187584 29.3157492 4.65156165 29.2527973 4.65567999 29.3118358 4.71380176 29.3076525 4.8738193 29.2403149 4.93121039 29.2362665 4.99371621 29.2953725 5.05549134 29.345842 5.11348027 29.4009671 5.11766503 29.4600056 5.23756194 29.507169 5.30006775 29.5654653 5.3039204 29.6209952 5.24991697 29.6841496 5.30803874 29.6800337 5.36616051 29.6758504 5.3159433 29.793725 5.32032734 29.8569469 5.20421665 29.8653135 5.26599179 29.915783 5.2742949 30.0347371 5.33646859 30.0895924 5.39465678 30.0854765 5.45643192 30.1358785 5.52279038 30.2497048 5.57333971 30.1867529 5.56922137 30.1277818 5.68167869 30.0648299 5.79772296 30.0564633 5.85172638 29.993309 5.90984815 29.9890582 6.02662309 30.0400675 6.08474486 30.0358842 6.13456352 29.9127467 6.24648945 29.9047849 6.3667849 29.956334 6.42902502 30.0111217 6.5493869 30.0024852 6.61122846 30.1121957 6.72388506 30.104099 6.89811752 30.0916165 6.95617286 30.0874332 7.07653475 30.1381726 7.12708408 30.0751532 7.2432612 30.0667866 7.30888898 30.1214394 7.36355665 30.117526 7.367675 30.176497 7.42141272 30.1726511 7.47966734 30.1091594 7.47143066 29.9912173 7.58382156 29.9282654 7.57970321 29.8692269 7.69588033 29.8608603 7.74549971 29.7970987 7.86167683 29.7887996 7.91634451 29.7848861 8.03677281 29.8363677 8.09489458 29.7719989 8.20270216 29.7049311 8.1945319 29.5870565 8.24534694 29.5284228 8.3069228 29.5239696 8.35733929 29.4610852 8.35328737 29.4020467 8.46561184 29.3382176 8.51941599 29.3343042 8.63559311 29.3260051 8.74353354 29.1996964 8.68561104 29.1445038 8.6814927 29.0854653 8.61539994 29.0353331 8.59102201 28.6847456 8.64921021 28.6213213 8.69889602 28.5585044 8.81102122 28.4911667 8.91570683 28.3684341 8.9738286 28.3643182 9.03208322 28.3009615 9.14002365 28.1744504 9.19004158 28.1160191 9.30183466 28.0443632 9.29804844 27.989643 9.35603736 27.9854597 9.35218471 27.9298622 9.40592244 27.8633343 9.46404421 27.8592184 9.57251604 27.8513916 9.69294435 27.8427551 9.80480385 27.8347259 9.86717681 27.8302727 9.92104739 27.8263593 9.97916916 27.8222435 10.0877738 27.7551082 10.1500804 27.7505876 10.2000983 27.6911442 10.316209 27.6827776 10.3743308 27.6786618 10.4283342 27.6155075 10.486456 27.6113241 10.5403265 27.5482373 10.59433 27.4850829 10.5905438 27.4303627 10.6410931 27.3674782 10.6287381 27.1896205 10.6186415 27.1775429 10.6305315 27.1659376 10.6027659 27.1487321 10.5842334 27.1176947 10.5710148 27.0872645 10.6250183 27.0242452 10.5627782 26.9693225 10.6127297 26.8471296 10.6088106 26.7915997 10.6627476 26.7285128 10.7208029 26.7243295 10.7748064 26.6611077 10.8329281 26.6569244 10.8867323 26.6530784 10.9455847 26.6488277 10.9995882 26.5857408 11.0535916 26.5224515 11.1150346 26.5180658 11.1738206 26.5731909 11.2360607 26.6280461 11.2898649 26.6241327 11.406042 26.6158336 11.4142787 26.7337757 11.4681493 26.6706888 11.526271 26.6665055 11.5802745 26.6032837 11.6383962 26.5991678 11.6425146 26.6582064 11.6465665 26.7171099 11.7013006 26.713129 11.7593559 26.7090132 11.7673269 26.8235817 11.8212639 26.7603599 11.8834376 26.8152151 11.9456777 26.8700028 11.9497961 26.9290413 12.0119033 26.9838291 12.066571 26.9798482 12.1246928 26.9757324 12.1862022 26.9712792 12.2408699 26.9674332 12.3023129 26.96298 12.3528622 26.9001631 12.3487439 26.8411245 12.344692 26.7821535 12.4027473 26.7779027 12.4565515 26.7741243 12.5146733 26.7698735 12.5105549 26.710835 12.5728615 26.7063818 12.6267985 26.7025358 12.6309168 26.7615744 12.727565 26.651729 12.7284949 26.6511892 12.7775829 26.624605 12.8312542 26.5571324 12.889376 26.5529491 12.9473649 26.5487658 13.0597558 26.4858139 13.1137592 26.4225921 13.1096409 26.363621 13.1593931 26.3006691 13.2133301 26.2374473 13.3294408 26.2291482 13.3884261 26.2248974 13.5127735 26.3346078 13.5625257 26.2717234 13.7449949 26.377318 13.740943 26.3182794 13.7947471 26.2550576 13.8528689 26.2509418 13.9109907 26.246691 13.8569872 26.3099128 13.8611056 26.3689514 13.9233457 26.4238066 13.8690766 26.4825752 13.9897706 26.588912 14.0680191 26.824054 14.1384295 27.0483329 14.200736 27.1039978 14.3371063 27.3863705 14.3950952 27.3821872 14.5195754 27.4917627 14.5824798 27.6059263 14.6475762 27.6526174 14.7065614 27.7121957 14.8885656 27.8725105 15.2580872 28.1982682 15.3195967 28.1938825 15.3824346 28.3079112 15.4986117 28.2995446 15.5647045 28.4099972 15.6187079 28.3467079 15.8017749 28.5116109 15.8674027 28.5660613 15.9257901 28.6169356 15.9797271 28.6130222 16.1040081 28.7226652 16.1664475 28.7181445 16.22437 28.7732696 16.2366586 28.9503177 16.2402455 29.0014619 16.3607402 29.0565195 16.418862 29.0523362 16.4735297 29.0484228 16.5971464 29.0987574 16.6556667 29.1496317 16.6600507 29.2128535 16.7220252 29.2633905 16.7878522 29.4331515 16.8624474 29.605544 16.8746031 29.779151 16.8163485 29.8425752 16.7625443 29.8464211 16.7044226 29.8506044 16.7086073 29.9095755 16.7126593 29.968614 16.7202981 30.0787967 16.6700145 30.1451898 16.6158782 30.2047681 16.6202622 30.2673826 16.6820374 30.3187293 16.7367051 30.3147484 16.7948268 30.3106326 16.848631 30.3067191 16.9070849 30.246736 16.9609555 30.2429575 16.9566378 30.180343 17.0732135 30.116244 17.0688295 30.0537644 17.0611906 29.9435817 17.115194 29.8804273 17.1657434 29.8174754 17.2196804 29.7543885 17.2778021 29.7502052 17.3315399 29.7462918 17.3939792 29.7418386 17.3898609 29.6828676 17.3860747 29.6273376 17.3818899 29.5682991 17.3737197 29.450357 17.365483 29.33228 17.2992574 29.2821479 17.1911177 29.3447624 17.1263534 29.2509755 17.0959972 29.0987574 17.1090829 29.0028114 17.1670719 28.9986281 17.1626878 28.9352038 17.2172226 28.8798763 17.1591009 28.8840596 17.212905 28.8175316 17.2627901 28.7580883 17.3252295 28.7535676 17.3789672 28.7497891 17.3828863 28.8053191 17.5033146 28.8593646 17.5614364 28.8551139 17.6195581 28.850998 17.6776135 28.8468147 17.7357353 28.8426314 17.7437727 28.9571999 17.8023594 29.0122575 17.8062121 29.0669778 17.8721055 29.1258139 17.922522 29.1221704 17.984895 29.1177172 18.0385663 29.0503121 18.0226907 28.8220523 18.0183067 28.7596401 17.8940257 28.7127467 17.835439 28.5983807 17.7698112 28.5437279 17.6530363 28.492921 17.5367927 28.5012201 17.4749512 28.4506832 17.4170287 28.3956255 17.2343603 28.3494068 17.1765042 28.2942817 17.1142641 28.239359 17.0562752 28.2435423 16.9434857 28.251639 16.8814449 28.2002924 16.7612158 28.1496879 16.6988429 28.1542086 16.7570311 28.0906494 16.8110345 28.0868035 16.8692227 28.0233118 16.860986 27.9053697 16.6785833 27.8625921 16.6247791 27.8665055 16.4540008 27.8787855 16.3378237 27.8871521 16.221713 27.8361428 16.1515683 27.7269722 16.0933137 27.6674613 15.9688999 27.5578184 15.8989545 27.4520214 15.782246 27.3419736 15.7740093 27.223964 15.8244922 27.1609446 15.7620528 27.0511667 15.6922402 26.9368007 15.6881219 26.8777622 15.6293359 26.8226371 15.6216306 26.7125218 15.5593241 26.716975 15.4431469 26.6625921 15.3227851 26.6118527 15.2646633 26.6161035 15.1447 26.5689401 15.1403159 26.506393 15.0820613 26.4591622 15.0776773 26.3958055 15.0117173 26.2862974 15.0656544 26.2231431 15.0616024 26.1641721 15.0574177 26.1051335 15.1082991 26.0457577 15.1657566 25.982266 15.1616383 25.9232274 15.1000624 25.9276806 15.0412764 25.8725555 15.0374238 25.8179702 14.9793684 25.822086 15.0330397 25.7546134 15.0877738 25.7507675 15.0798029 25.6361316 15.1959135 25.627765 15.2540353 25.6236491 15.3120907 25.6194658 15.3702124 25.61535 15.4242823 25.5520607 15.47802 25.5482823 15.4742338 25.4936295 15.5365403 25.4891763 15.591208 25.4851954 15.5949942 25.5398482 15.660622 25.5944335 15.6527174 25.4808097 15.7072523 25.4768963 15.7190759 25.4609053 15.7690938 25.4758842 15.8196432 25.4129997 15.8278799 25.5310768 15.8319318 25.5899803 15.7815153 25.6537419 15.7233935 25.6579927 15.6691244 25.7168288 15.7312981 25.7716165 15.73535 25.830655 15.7435867 25.9485971 15.8055611 26.0000112 15.8096794 26.0589823 15.8684655 26.1141074 15.9183505 25.9919145 15.9726197 25.9321338 16.0224383 25.8100759 16.0182536 25.7510374 16.0763753 25.7468541 16.1386154 25.8017093 16.2007891 25.8564296 16.2587116 25.9116222 16.3248044 26.0220073 16.2745872 26.1398145 16.2790376 26.2031712 16.2869422 26.3167951 16.4029865 26.3084285 16.4073705 26.3717852 16.4654923 26.3676019 16.5237469 26.4149002 16.5904375 26.4729941 16.4153415 26.485544 16.4773159 26.5368232 16.5361019 26.5918808 16.6065787 26.7055046 16.6603829 26.7015912 16.7845974 26.8077256 16.7887157 26.8667641 16.9090112 26.9175035 17.02107 26.8500984 17.0791253 26.8459151 17.2001514 26.9558279 17.3241667 27.0611527 17.3904587 27.1749114 17.5023847 27.1668822 17.5684774 27.2773348 17.6888393 27.3313129 17.7469611 27.3271971 17.8136516 27.433264 17.8674558 27.429418 17.9298952 27.488524 18.0460723 27.4801574 18.1041941 27.4760416 18.1702868 27.5261737 18.1747373 27.5895305 18.2288736 27.6406073 18.2904494 27.6362215 18.298354 27.750655 18.4111434 27.7425583 18.4153282 27.8015969 18.4732507 27.7974136 18.5313725 27.7932303 18.5192831 27.6197582 18.5111129 27.5016812 18.5143013 27.4981726 18.5184196 27.5570087 18.5342952 27.7852685 18.5967346 27.8434299 18.6005872 27.8990273 18.6047055 27.9579983 18.5465838 27.9621816 18.57508 28.3716728 18.5208109 28.4305763 18.5248628 28.4894799 18.5290476 28.5485184 18.5912213 28.6033736 18.5372179 28.6665954 18.5410705 28.7221929 18.5991923 28.7179421 18.6035763 28.7803542 18.5454545 28.7845375 18.5534255 28.899106 18.6696026 28.8908069 18.7283887 28.9457295 18.8444994 28.9373629 18.8482856 28.9922182 18.914644 29.1059095 18.9070052 29.1065167 18.9687803 29.2171718 19.0308876 29.2720945 19.143677 29.2639978 19.1477289 29.3229688 19.1559656 29.4409109 19.2223241 29.4954962 19.2721427 29.4325443 19.3345157 29.4280911 19.3882534 29.4242452 19.4507592 29.4197245 19.4548112 29.4788305 19.4587302 29.5343604 19.3424867 29.5426595 19.2801137 29.5471127 19.2302951 29.6099972 19.2883504 29.6650548 19.2965871 29.7831319 19.3588936 29.7786787 19.4789234 29.8248974 19.5289413 29.7663987 19.5870631 29.7622828 19.6417308 29.7583019 19.6454506 29.8129547 19.7578415 29.7500028 19.8158968 29.745887 19.8773398 29.7414338 19.9901293 29.7333371 20.0477861 29.7840765 20.1140117 29.8351532 20.110159 29.7796233 20.2220185 29.7715266 20.2806053 29.8232106 20.3429118 29.8814394 20.4629416 29.9286702 20.4135879 29.9949958 20.3511485 29.999449 20.2970122 30.0591622 20.2384255 30.0075457 20.2341078 29.9450661 20.1721334 29.8937194 20.0598754 29.9575485 20.0560227 29.902086 20.0021522 29.905932 19.9397792 29.9103852 19.8893627 29.9140287 19.8279197 29.9184144 19.7736506 29.9781276 19.7155288 29.9822435 19.6576063 29.9864268 19.6029386 29.9904076 19.5447504 29.9945235 19.4953303 30.0609165 19.499183 30.1164464 19.5611574 30.2305426 19.6193456 30.2264268 19.6777995 30.2772336 19.7401724 30.3363396 19.7522618 30.5098791 19.6983912 30.572966 19.7601663 30.623503 19.768403 30.7415125 19.834695 30.8554737 19.8928168 30.8512229 19.9542598 30.8468372 20.0006244 30.7841552 19.9460896 30.7288277 19.9419048 30.6697217 19.9883358 30.6071071 20.0547607 30.661625 20.0588126 30.720731 20.0670493 30.8387405 20.1247725 30.890357 20.1871455 30.8859039 20.2491199 31 20.3071752 30.9958842 20.291034 30.7633062 20.3416497 30.7004217 20.34982 30.8184313 20.4078753 30.8143154 20.4158463 30.9286815 20.4782193 30.9242283 20.7105735 30.9074951 20.7063887 30.8485915 20.586359 30.8014956 20.5822406 30.7423897 20.5158158 30.6878718 20.5075791 30.5697948 20.4537749 30.5737082 20.3835638 30.4645375 20.3213901 30.4097498 20.3134192 30.2951139 20.3714745 30.290998 20.4377001 30.3420073 20.4418184 30.4010458 20.4996745 30.4561709 20.5619811 30.4516503 20.6741063 30.3843801 20.7819138 30.3173123 20.7736771 30.1985606 20.6662017 30.2698116 20.6038287 30.2743323 20.5455077 30.2149564 20.5417215 30.1601687 20.5915401 30.0974192 20.6997463 29.9744841 20.7578016 29.9703683 20.8237615 30.080686 20.944057 30.1312904 20.940005 30.0723194 20.9358203 30.0132809 20.92765 29.8952038 20.9194133 29.7773292 20.8579039 29.7817824 20.7413282 29.7342817 20.6753019 29.6247737 20.6215642 29.6286196 20.5012023 29.5780152 20.3810397 29.5274107 20.2606114 29.5360472 20.2017589 29.4809896 20.2526404 29.4214788 20.3065774 29.358257 20.302459 29.2992859 20.2444037 29.3034692 20.1815658 29.1894405 20.2321151 29.1264886 20.2901704 29.1223053 20.4063476 29.1139387 20.4727724 29.168524 20.4768244 29.2275626 20.4809427 29.2864661 20.5348133 29.2825527 20.5889496 29.1602249 20.5265766 29.1646781 20.3445724 29.0032837 20.2739628 28.8898622 20.1573871 28.8431712 20.0952798 28.7883835 20.0873089 28.673815 20.0829248 28.6114703 20.0790722 28.5558729 20.0211497 28.5006803 20.0709019 28.4378634 20.1795066 28.3707281 20.2375619 28.3665448 20.2457986 28.4846219 20.3122899 28.5391397 20.3741979 28.6532359 20.4445419 28.7633511 20.5648373 28.8138881 20.6805495 28.8606466 20.6767632 28.8058589 20.5607854 28.7549845 20.4940284 28.6960135 20.4904415 28.6448693 20.4861238 28.5824571 20.5528144 28.6404161 20.6101391 28.6877144 20.6726449 28.7469553 20.8509957 28.793309 20.8468774 28.7344054 20.7853679 28.7388586 20.7226628 28.6282035 20.6603563 28.5699747 20.7183452 28.5657914 20.7730129 28.5619455 20.7809175 28.6754344 20.897161 28.6670678 21.0096847 28.6075569 21.0634225 28.541029 21.0053671 28.5452797 20.8853374 28.4979814 20.7650419 28.4473095 20.7062559 28.3922519 20.6441486 28.3373967 20.6400303 28.2784931 20.6980856 28.2743098 20.8689304 28.2620298 20.9270522 28.2578465 20.9233324 28.2030588 20.9192141 28.1441552 20.9730846 28.0810008 21.0351919 28.1358561 21.0931144 28.1909137 21.2136091 28.1822772 21.2675461 28.1191903 21.2054389 28.0643351 21.2634942 28.0600843 21.371966 28.052325 21.4922615 28.1030644 21.666494 28.0905145 21.7287341 28.1452347 21.7827375 28.1413888 21.7792834 28.1450998 21.8414571 28.199955 21.9577671 28.1916559 22.015756 28.1874726 22.0663053 28.1245207 22.0703572 28.1835592 22.074542 28.2425302 22.0199407 28.2465111 21.9120003 28.3727523 21.9739083 28.4241664 22.028111 28.3644532 22.1945718 28.289761 22.2487745 28.2300478 22.3608332 28.1627101 22.3567813 28.1036716 22.4067328 28.0451729 22.5194558 27.9734495 22.5735921 27.9146809 22.6273299 27.8470734 22.7398536 27.7875626 22.7937242 27.7836491 22.9142189 27.7750801 23.0261448 27.7669834 23.0842002 27.7628676 23.1382036 27.6996458 23.1299669 27.5816362 23.0718452 27.5858195 22.9515497 27.5352151 22.8977455 27.539061 22.769147 27.4296205 22.657221 27.4377172 22.6533684 27.3821198 22.6492501 27.3232162 22.5874085 27.2726118 22.5678132 27.2740961 22.5638941 27.2186337 22.5557238 27.1005566 22.4975356 27.1047399 22.4356941 27.0543379 22.4315757 26.9952994 22.3153986 27.0035985 22.2649157 27.0666179 22.2525607 26.8896373 22.3033093 26.8301265 22.3613646 26.8259432 22.357047 26.7634636 22.4112497 26.7037504 22.349076 26.6488951 22.341105 26.5352713 22.3992268 26.531088 22.3830856 26.2985775 22.4992627 26.2902109 22.6153734 26.2819117 22.6650592 26.2189598 22.6164362 26.1184256 22.6221487 26.0956199 22.6182296 26.0402249 22.6642621 25.9225527 22.605941 25.8631768 22.5936524 25.6861962 22.6437368 25.62763 22.6978067 25.5644757 22.6396185 25.5685915 22.5857479 25.5725049 22.5816295 25.5134664 22.6275291 25.395052 22.6234108 25.3361484 22.6774806 25.2729266 22.7439055 25.3274445 22.7520758 25.4453866 22.8058799 25.4416081 22.8598834 25.3783188 22.8558314 25.3194827 22.9138868 25.3152994 22.9638383 25.1930391 22.9476306 24.9605285 22.9112298 25.0546528 22.8268702 24.9534439 22.8109946 24.9477087 22.8030901 24.8332078 22.7410492 24.7817936 22.7368645 24.7227551 22.7909343 24.6596008 22.8491225 24.6554175 22.8531744 24.714456 22.9071779 24.6512342 23.0156497 24.6434074 23.0695203 24.580253 23.1275756 24.5760697 23.1815791 24.5722238 23.1736745 24.4586674 23.115287 24.3990891 23.0572317 24.4032724 22.9409881 24.3602249 22.9374012 24.3089457 22.9920689 24.3050323 23.0457402 24.2385044 23.1081131 24.2967332 23.1657035 24.344099 23.2202383 24.3401855 23.2084811 24.1710318 23.2618203 24.0485015 23.3199421 24.0443857 23.3743441 24.0997132 23.4864693 24.0323756 23.594609 23.909643 23.6493431 23.9056621 23.65293 23.9568063 23.714373 23.9523531 23.7066677 23.8422378 23.7026158 23.7831319 23.6946448 23.669508 23.7572835 23.7792859 23.815206 23.834411 23.8193243 23.8934495 23.8896018 24.0034299 23.7734912 24.0117965 23.7775431 24.0707675 23.7816614 24.129806 23.7855805 24.185336 23.9060088 24.2393815 24.0180676 24.2829013 24.1887131 24.1564577 24.2891475 24.0933708 24.34707 24.089255 24.405391 24.0256958 24.4715502 24.1988305 24.525288 24.132235 24.5753059 24.0135507 24.571254 23.9545122 24.6216705 23.9509362 24.691483 24.0051841 24.7420988 23.9422322 24.7959029 23.9383863 24.9701354 23.9259039 24.9741873 23.9848749 25.0289214 23.9809615 25.0248031 23.921923 25.0829248 23.9178071 25.1211856 23.7406916 25.2333107 23.6732865 25.2415474 23.7913635 25.3073081 23.786573 25.4614802 23.5975822 25.5738711 23.5345628 25.6167816 23.4722856 25.6742391 23.4089289 25.7288404 23.404948 25.8525235 23.45535 25.9031392 23.3923981 25.8442868 23.3373405 25.948906 23.2740512 25.9991232 23.1561766 26.0573114 23.0926848 26.1110491 23.0887714 26.1613992 23.0215687 26.157613 22.9669834 26.2229086 23.017183 26.2733251 23.0135395 26.2772442 22.9583469 26.2767128 22.9505201 26.3273949 22.8910768 26.3854503 22.886826 26.4327448 22.836424 26.4403837 22.9466742 26.5017603 22.9422884 26.611162 22.8236716 26.6614457 22.7684791 26.7699175 22.7607197 26.7767593 22.8587574 26.7811433 22.9221816 26.6765241 22.9846612 26.560347 23.0565195 26.5141153 23.119269 26.5682516 23.1702109 26.6390605 23.2244588 26.5258725 23.2883554 26.4100939 23.2409221 26.3520386 23.2451054 26.2935183 23.3050886 26.2432346 23.3086646 26.2472865 23.3677031 26.3017549 23.4231656 26.4727326 23.4108856 26.5381611 23.4654034 26.5420137 23.5200562 26.7169769 23.5667473 26.6631063 23.5705932 26.6006005 23.6344223 26.5460657 23.5790273 26.5543023 23.6970368 26.6083058 23.744605 26.5622733 23.8115378 26.4964463 23.7526342 26.4424428 23.7050661 26.3878416 23.7604611 26.3964104 23.8827214 26.3381558 23.9462806 26.4043814 23.9973573 26.4123524 24.1109812 26.2995629 24.1190779 26.2498107 24.2926848 26.253929 24.3515884 26.3699733 24.4025977 26.4944535 24.4529997 26.5450029 24.4494237 26.6567295 24.441327 26.7275384 24.4955749 26.7313246 24.5511049 26.8356117 24.5436829 26.8898144 24.4839022 26.9517224 24.5353163 27.0679659 24.5270171 27.0720179 24.5858532 27.1920476 24.6322744 27.3047706 24.6241777 27.3626267 24.6793028 27.4213463 24.7343604 27.5376563 24.7259938 27.7203911 24.9465617 27.9017975 24.9884622 27.9565316 24.9844813 28.0146533 24.9803655 28.0729079 25.0398763 28.1275756 25.0359629 28.1845017 24.9681529 28.2391694 24.9641721 28.3017417 25.023413 28.4221035 25.0147765 28.4300081 25.1284678 28.4838123 25.1246219 28.5966017 25.1165252 28.6511365 25.1719202 28.6552549 25.2317683 28.7284551 25.3329098 28.7863776 25.3880349 28.9104593 25.4942367 28.9648612 25.5496317 28.9692453 25.6120439 28.9188952 25.6156874 28.8687444 25.7343717 28.8725971 25.7890245 28.876649 25.848063 28.9347708 25.8438122 28.9307189 25.7848412 28.9809361 25.7812651 29.046896 25.7764746 29.2681572 25.7606185 29.325814 25.70158 29.3804817 25.6976666 29.4301011 25.6347821 29.5470753 25.6856565 29.6085183 25.6812707 29.6122381 25.7359235 29.6163565 25.794962 29.6754082 25.7906438 29.7872677 25.782682 29.9619651 25.825932 29.9662827 25.8883441 30.0206183 25.9402305 29.9780399 26.0574979 29.9821583 26.1165364 30.0408114 26.2310374 30.1032508 26.2901434 30.1647603 26.2856902 30.2194279 26.2817768 30.2775497 26.2775935 30.3313539 26.2737475 30.3860215 26.2698341 30.4396929 26.2023615 30.5055863 26.2611976 30.5093726 26.3159179 30.6220956 26.3077537 30.6802173 26.3036379 30.8005128 26.3543098 30.803834 26.4019455 30.9783322 26.5036941 31.0988269 26.5587518 31.1564837 26.6094911 31.3273285 26.5972786 31.4476904 26.5886421 31.4981733 26.5849986 31.6104978 26.5220467 31.7224237 26.5140174 31.7255457 26.5050436 31.7266749 26.5136801 31.7260107 26.5036267 31.7647364 26.3922969 31.7605516 26.3332584 31.7572303 26.2855552 31.8735403 26.2179477 31.9771631 26.0919764 31.9729784 26.0329379 32.0229963 25.910745 32.069693 25.7931403 32.1893242 25.7845713 32.231504 25.6629857 32.2937441 25.6585325 32.4104526 25.7686477 32.480398 25.8229632 32.488369 25.936587 32.4225419 25.9413776 32.4924873 25.9956255 32.5555246 26.1140399 32.5593772 26.1687602 32.4430672 26.2363677 32.3883331 26.2402811 32.5122155 26.2793478 32.6204881 26.3308968 32.6787427 26.2673376 32.7367316 26.2631543 32.9656318 26.3061344 32.9033252 26.2512792 32.9581258 26.1993927 32.8378303 26.1487208 32.7792436 26.0344223 32.8254753 25.9717402 32.8214234 25.9127017 32.817305 25.8537307 32.8753604 25.8494799 32.883597 25.9675569 32.9334821 25.8453641 32.9255776 25.7316728 32.9217913 25.6761428 32.8592855 25.617914 32.7931928 25.5075288 32.8513145 25.503413 32.8474619 25.4486927 32.8394909 25.3341917 32.8351733 25.2717121 32.7729996 25.2169244 32.7688813 25.1578859 32.823084 25.0981726 32.8727034 24.9716615 32.927836 24.9249705 33.040559 24.9168738 33.0363743 24.8570931 32.9819059 24.8016306 32.8655959 24.8693731 32.7494188 24.8776722 32.6408805 24.885499 32.5750535 24.775991 32.4629283 24.7840202 32.4043415 24.7288951 32.3302114 24.6155412 32.2714918 24.5606185 32.2137685 24.508867 32.1471444 24.4509081 32.0967943 24.4545516 31.9797537 24.4100197 31.9810158 24.4070509 31.9733105 24.4075232 31.9187092 24.4114366 31.8059862 24.3602249 31.6823031 24.3098904 31.6162768 24.2596233 31.4458969 24.1568625 31.3256679 24.1061906 31.2047082 23.9962103 31.1888991 23.7680855 31.1271239 23.7209896 31.0604998 23.6630306 31.0525288 23.5484622 30.994407 23.4297104 30.9355546 23.4339612 30.9320341 23.382817 30.8116722 23.3321451 30.6368419 23.2260782 30.6409602 23.2850492 30.5913409 23.3479337 30.524916 23.2934158 30.4088717 23.2424065 30.4507858 23.0066573 30.4469332 22.9510599 30.4966854 22.8881754 30.4887808 22.7744841 30.5467033 22.7067416 30.4806106 22.656542 30.4693183 22.4951476 30.5231225 22.3683666 30.5152179 22.2546753 30.5690221 22.2508294 30.6275424 22.3015687 30.7311652 22.1755299 30.7894198 22.1120382 30.8397699 22.0569806 30.8904521 21.9347203 30.944057 21.9901827 30.9981932 21.8677875 30.923731 21.6987012 30.815392 21.7064605 30.761455 21.7103739 30.6414916 21.6640202 30.6867934 21.5378465 30.7453137 21.478673 30.7991843 21.4748946 30.7411954 21.419702 30.5587262 21.3141749 30.3226522 21.1645881 30.2059437 21.0544054 30.1480212 21.1221479 30.0284564 21.1307844 30.0323091 21.1854372 29.9816933 21.2483216 29.865649 21.1973798 29.8071951 21.1466404 29.7992242 21.0322069 29.794508 20.9653416 29.6712234 20.9192578 29.5627516 20.9270171 29.508416 20.9858532 29.4884221 20.6987574 29.5923107 20.5134776 29.4181446 20.4778521 29.3599564 20.4192859 29.409443 20.3520832 29.3976193 20.182862 29.3394976 20.1243632 29.2744676 20.0295642 29.324087 19.9039303 29.3779576 19.9000843 29.3656025 19.7231037 29.3117984 19.7268822 29.4081809 19.5456508 29.5288085 19.6005735 29.5868638 19.7071802 29.7104805 19.7575822 29.7695987 19.8162159 29.8729558 19.6866685 29.8689039 19.6275626 29.8070623 19.5170425 29.736984 19.3484959 29.6166222 19.2970143 29.7290131 19.2339275 29.840939 19.2258982 29.8163618 18.8718696 29.9290848 18.8637728 29.9866752 18.8039247 30.0416085 18.6935395 30.1419101 18.5678381 30.1880754 18.4536744 30.179573 18.3314141 30.241946 18.3268934 30.2995364 18.3786449 30.3589202 18.4414619 30.46613 18.3666348 30.5207976 18.2518639 30.5664979 18.1300759 30.6708514 18.063278 30.733158 18.0588249 30.8620222 18.171639 30.8576382 18.1092269 30.9002165 17.9910149 30.9582055 17.9867641 31.0701314 17.9787349 31.1320394 18.030149 31.2489472 18.0810908 31.418862 18.0688783 31.4813678 18.1271746 31.5940908 18.1190779 31.6556003 18.1146922 31.7098694 18.1665111 31.7016327 18.048569 31.6471643 17.993174 31.6433117 17.9376441 31.6936617 17.9340006 31.9887875 17.9686815 32.1628207 18.01544 32.2130379 17.8966882 32.2088531 17.8376497 32.2048012 17.7787461 32.2551512 17.7752376 32.251365 17.7203823 32.1968966 17.6651223 32.305302 17.6572955 32.4215456 17.6489963 32.3551871 17.534158 32.4132425 17.5300422 32.4712314 17.4631768 32.5874749 17.5174923 32.7003308 17.509463 32.6920941 17.3914535 32.7963147 17.3840315 32.742112 17.2736463 32.7848232 17.219196 32.8390259 17.1595502 32.9587236 17.0915378 33.017576 17.1466629 33.0752992 17.2496936 33.1915428 17.241327 33.4169888 17.1737869 33.4706601 17.169941 33.5329667 17.1654203 33.5212095 16.9962665 33.6210461 16.9254878 33.7954778 16.8536295 33.9536354 16.6722631 34 16.6095811 33.9917633 16.4915041"></polyline>
        </g>
    </g>
</svg>