<?xml version="1.0" encoding="UTF-8"?>
<svg width="38px" height="38px" viewBox="0 0 38 38" version="1.1" xmlns="http://www.w3.org/2000/svg" xmlns:xlink="http://www.w3.org/1999/xlink">
    <title>A4D12A34-29BB-44AE-A38B-45629BF03A1A@0.5x</title>
    <g id="Icons" stroke="none" stroke-width="1" fill="none" fill-rule="evenodd">
        <g id="UI-Mapping-Icons" transform="translate(-149.000000, -1068.000000)"></g>
        <g id="3-Icons/Investments/United_Kingdom" fill="#5A287D">
            <path d="M12.1729191,30.8413915 C13.4091442,33.25 15.0017585,35.6362028 16.9618992,38 C11.7608441,37.4398585 7.18347011,34.7623821 4.09847597,30.8413915 L4.09847597,30.8413915 Z M33.901524,30.8413915 C31.0726846,34.4375 26.9853458,36.9805425 22.3188746,37.8095519 C24.2121923,35.5129717 25.7491208,33.182783 26.9519343,30.8413915 L26.9519343,30.8413915 Z M18.7883939,30.8413915 L18.7883939,37.40625 C16.9284877,35.2329009 15.3915592,33.0483491 14.1776084,30.8413915 L14.1776084,30.8413915 L18.7883939,30.8413915 Z M24.947245,30.8413915 C23.7778429,32.9587264 22.3188746,35.0648585 20.5480657,37.1597877 L20.5480657,37.1597877 L20.5480657,30.8413915 Z M28.2438453,19.8738208 C28.0767878,22.9433962 27.2749121,26.0129717 25.8493552,29.0713443 L25.8493552,29.0713443 L20.5480657,29.0713443 L20.5480657,19.8738208 Z M9.1101993,19.8738208 C9.26611958,22.9545991 10.0123095,26.0241745 11.3376319,29.0713443 L11.3376319,29.0713443 L2.85111372,29.0713443 C1.19167644,26.3714623 0.167057444,23.2346698 0.011137163,19.8738208 L0.011137163,19.8738208 Z M37.9888628,19.8626179 C37.8440797,23.2346698 36.8194607,26.3714623 35.1488863,29.0601415 L35.1488863,29.0601415 L27.7983587,29.0601415 C29.112544,26.0241745 29.869871,22.9545991 30.0146542,19.8626179 L30.0146542,19.8626179 Z M18.7883939,19.8626179 L18.7883939,29.0601415 L13.2754982,29.0601415 C11.8499414,26.0129717 11.0480657,22.9433962 10.8810082,19.8626179 L10.8810082,19.8626179 L18.7883939,19.8626179 Z M35.1154748,8.83903302 C36.8083236,11.5501179 37.8440797,14.709316 38,18.0925708 L38,18.0925708 L30.0480657,18.0925708 C30.0369285,17.7788915 30.0369285,17.4764151 30.0146542,17.1627358 C29.8253224,14.0595519 29.0568581,11.2700472 28.0545135,8.83903302 L28.0545135,8.83903302 Z M26.0943728,8.83903302 C27.1969519,11.2700472 28.0545135,14.115566 28.2438453,17.285967 C28.2661196,17.5548349 28.2661196,17.8237028 28.2661196,18.0925708 L28.2661196,18.0925708 L20.5480657,18.0925708 L20.5480657,8.83903302 Z M18.7883939,8.83903302 L18.7883939,18.0925708 L10.8587339,18.0925708 C10.8587339,17.8237028 10.869871,17.5548349 10.8810082,17.285967 C11.07034,14.1267689 11.9279015,11.28125 13.0304807,8.83903302 L13.0304807,8.83903302 L18.7883939,8.83903302 Z M11.0814771,8.83903302 C10.0679953,11.2700472 9.31066823,14.0595519 9.12133646,17.1627358 C9.09906213,17.4652123 9.09906213,17.7788915 9.08792497,18.0925708 L9.08792497,18.0925708 L-3.55271368e-15,18.0925708 C0.155920281,14.709316 1.19167644,11.5501179 2.88452521,8.83903302 L2.88452521,8.83903302 Z M22.5973036,0.201650943 C27.130129,1.0754717 31.0838218,3.57370283 33.8569754,7.05778302 L33.8569754,7.05778302 L27.2415006,7.05778302 C25.7379836,4.03301887 23.9337632,1.70283019 22.5973036,0.201650943 Z M20.5480657,0.61615566 C21.6840563,1.80365566 23.5885111,4.03301887 25.2145369,7.05778302 L25.2145369,7.05778302 L20.5480657,7.05778302 Z M18.7883939,0.403301887 L18.7883939,7.05778302 L13.9103165,7.05778302 C15.647714,3.84257075 17.6969519,1.52358491 18.7883939,0.403301887 L18.7883939,0.403301887 Z M16.7168816,8.8817842e-16 C15.3692849,1.47877358 13.4536928,3.88738208 11.8833529,7.05778302 L11.8833529,7.05778302 L4.14302462,7.05778302 C7.18347011,3.23761792 11.6494725,0.61615566 16.7168816,8.8817842e-16 Z" id="Combined-Shape" fill-opacity="0.5"></path>
            <path d="M15.3251649,11.5781539 C15.3251649,11.5781539 15.5107765,11.6217765 15.5739635,11.5781539 C15.6332012,11.5423912 15.799067,11.3965895 15.799067,11.3965895 C15.799067,11.3965895 15.9649327,11.6390684 15.9886278,11.7035198 C16.0044245,11.7648273 15.779321,11.9302789 15.779321,11.9302789 C15.779321,11.9302789 15.4673355,12.1326722 15.5739635,12.1928006 C15.6805914,12.2545011 15.8819998,12.153894 15.9649327,12.1326722 C16.0518147,12.1102713 16.2532231,11.9515007 16.3164101,11.9302789 C16.379597,11.9102361 16.5178185,11.682691 16.5178185,11.682691 L16.6244464,11.4602549 L16.7271252,11.2099161 C16.7271252,11.2099161 16.8495499,11.0087018 16.9087877,11.0711883 L17.2602651,11.1478226 C17.386639,10.986301 17.5722506,11.106558 17.5722506,11.106558 C17.5722506,11.106558 17.5919965,11.2519667 17.4853686,11.3753677 C17.386639,11.4983756 16.7903122,11.9302789 16.829804,12.0108432 C16.873245,12.0906215 16.873245,12.0717577 16.829804,12.2996957 C16.7903122,12.5221318 16.5020217,12.5437466 16.379597,12.6836534 C16.2532231,12.8282762 16.2137313,12.6227389 16.2532231,12.8282762 C16.292715,13.0345994 16.0281196,13.1788292 16.1900362,13.2185218 C16.3598511,13.2597865 16.5612595,13.3246309 16.6244464,13.2597865 C16.6876334,13.194942 16.892991,13.0121986 16.9561779,12.970934 C17.0154157,12.9328133 17.2247224,12.843603 17.280011,12.8703268 C17.5288096,12.9964787 17.7381163,12.8887977 17.7934049,12.7484979 C17.8605411,12.6026961 18.0224576,12.4003029 18.0619494,12.499731 C18.1053905,12.6026961 18.4963597,12.9111985 18.4963597,12.970934 C18.4963597,13.0345994 18.3146972,13.3246309 18.3344431,13.4645377 C18.3541891,13.6064095 18.1251364,13.891332 18.2278152,13.9176628 C18.3344431,13.9333827 18.6622254,14.1416709 18.6819713,14.1998344 C18.7017173,14.2619279 18.9070748,14.4077296 18.8083452,14.5071578 C18.7017173,14.6128738 18.5792926,14.7508157 18.5792926,14.7508157 C18.5792926,14.7508157 18.8873289,14.6922592 18.8873289,14.8156601 C18.8873289,14.942598 18.7412091,15.2023688 18.6187844,15.3092639 C18.4963597,15.408692 18.2910021,15.6932216 18.2910021,15.6932216 C18.2910021,15.6932216 18.2080693,15.9184086 18.1646282,16.0217667 C18.1251364,16.1263039 17.7144212,16.3106193 17.7381163,16.4721409 C17.7539131,16.6375925 17.7934049,16.8812504 17.9000329,16.9885384 C18.0027117,17.0863946 18.0619494,17.2318034 18.1053905,17.3339825 C18.1488315,17.4400916 18.9702618,17.270317 19.0294995,17.3579553 C19.0966357,17.4400916 19.4441639,17.3779981 19.5428935,17.3779981 C19.6455723,17.3779981 19.7719462,17.1881807 19.7719462,17.1881807 L19.9773037,17.2545972 C19.9773037,17.2545972 20.2655942,17.2942898 20.3287811,17.3115817 C20.3880189,17.3339825 20.6565634,17.270317 20.6565634,17.270317 C20.8816669,17.1272663 20.9882949,17.1087954 21.0080408,17.0478809 C21.0277867,16.9885384 20.7789881,16.9052232 21.1699573,16.8230869 C21.5609265,16.7433086 21.9321498,16.804223 21.9321498,16.804223 C21.9321498,16.804223 22.0585237,16.928017 22.0585237,17.0478809 C22.0585237,17.1724609 21.9755909,17.3339825 21.8531662,17.4400916 C21.7307415,17.5391267 21.5806725,17.5391267 21.4582478,17.744271 C21.3397722,17.9470572 21.3200263,18.1749953 21.3753149,18.2567386 C21.442451,18.3337659 21.7070464,18.3152951 21.7702333,18.3997893 C21.8294711,18.4862486 22.2599321,18.7456264 22.2441354,18.8077198 C22.2204403,18.8686343 22.1967452,19.1559148 22.2204403,19.2396231 C22.2441354,19.3201874 22.4257979,19.3429812 22.5482226,19.4007517 C22.6706473,19.4632382 22.9628869,19.5084328 22.9628869,19.5084328 C22.9628869,19.5084328 23.1879904,19.5426235 22.9826328,19.831476 C22.7772752,20.1211145 22.6509014,20.1635582 22.6706473,20.2433365 C22.6982916,20.3254728 22.7377834,20.4866014 22.749631,20.5714887 C22.7772752,20.654018 22.8997,20.5911385 22.8009703,20.9385475 C22.6982916,21.2867425 22.8009703,21.2867425 22.8325638,21.4482641 C22.879954,21.6160737 22.7772752,21.9803816 22.7140883,22.0825607 C22.6509014,22.1855258 22.4257979,22.2676621 22.4257979,22.2676621 C22.4257979,22.2676621 22.1375074,22.0660548 21.9755909,22.1261833 C21.805776,22.1855258 21.5411806,22.1855258 21.355569,22.2083196 C21.1699573,22.2279694 21.0277867,22.1855258 20.9448538,22.2900629 C20.861921,22.3894911 20.7355471,22.3894911 20.5736305,22.4103199 C20.4077648,22.4358647 20.5736305,22.4358647 20.4077648,22.4358647 C20.2458482,22.4358647 20.3722221,22.3509774 20.1668646,22.5761645 C19.961507,22.8001725 19.9141168,22.8225733 19.8943709,22.9023517 C19.8746249,22.9892039 19.811438,23.1098539 19.7719462,23.20771 C19.7324543,23.3126401 19.7719462,23.3943834 19.8746249,23.5150334 C19.9773037,23.6423643 20.1826613,23.8856292 20.2655942,23.9681585 C20.3524762,24.0538318 20.6131224,24.0911664 20.5973256,24.2365752 C20.5736305,24.3827699 20.6368175,24.7466848 20.5736305,24.8075993 C20.5143928,24.8708717 20.2853401,24.9754088 20.1826613,25.0312144 C20.0839317,25.0948798 19.8943709,25.1770161 19.9141168,25.3200669 C19.9338627,25.4654756 20.0602366,25.5660828 19.8943709,25.7472542 C19.7324543,25.9370716 19.3414851,26.0545776 19.1795685,26.1595077 C19.0097536,26.2601148 18.9268208,26.0545776 18.7846501,26.1976284 C18.6385303,26.3430371 18.5398007,26.3827298 18.4134268,26.5289245 C18.2910021,26.6719753 17.9632198,26.710096 17.9632198,26.710096 C17.9632198,26.710096 17.6749294,27.4135599 17.6907261,27.4913732 C17.7144212,27.5684006 18.1251364,27.7138093 18.1843741,27.7377821 C18.2475611,27.753502 18.5555975,27.634817 18.6187844,27.6556458 C18.6819713,27.6756887 18.9505159,27.5963033 19.0097536,27.5963033 C19.0729406,27.5963033 19.4204688,27.4913732 19.4204688,27.4913732 C19.4204688,27.4913732 19.9773037,27.7802258 20.0839317,27.8596111 C20.1826613,27.9401754 20.9882949,28.2078061 21.0514818,28.2078061 C21.1107196,28.2078061 21.1502114,28.0238837 21.2765853,28.1468916 C21.39901,28.2698996 21.6675545,28.5135575 21.6675545,28.5135575 C21.6675545,28.5135575 21.7899792,28.4318142 21.9321498,28.4738648 C22.0782697,28.5135575 22.4850356,28.4318142 22.4850356,28.4318142 C22.4850356,28.4318142 22.9628869,28.1468916 22.9826328,28.0859771 C23.0023787,28.0238837 23.2709233,27.9032337 23.3341102,27.8780819 C23.393348,27.8596111 23.393348,27.8183464 23.5355186,27.8183464 C23.6816384,27.8183464 23.8909452,27.6120232 23.9501829,27.6120232 C23.9501829,27.6120232 23.7645713,28.3720787 23.6618925,28.453822 C23.5592137,28.5359583 23.2274822,28.4738648 23.1879904,28.6208455 C23.1445494,28.7583944 23.1445494,28.9026241 22.9194459,29.0264181 C22.6982916,29.146282 22.4257979,29.270862 22.3270683,29.270862 C22.2204403,29.270862 22.0940664,29.0264181 21.9953368,29.1918696 C21.892658,29.3529983 21.5806725,29.3345274 21.5806725,29.3345274 C21.5806725,29.3345274 21.6438594,29.0912625 21.4582478,29.0912625 C21.2765853,29.0912625 21.2331443,28.9254179 21.0870245,29.0264181 C20.9448538,29.1321341 20.7197503,29.0912625 20.6131224,29.1690758 C20.5143928,29.2484611 19.7956413,29.8037654 19.7956413,29.8037654 C19.7956413,29.8037654 19.6455723,29.8273452 19.5231476,29.9491741 C19.404672,30.0710031 19.3217392,30.2364547 19.1795685,30.4003343 C19.0294995,30.5594979 18.9268208,30.6443852 18.8083452,30.8059068 C18.6819713,30.9709654 18.4766138,30.8664283 18.1251364,31.2625689 C17.773659,31.6453476 17.4853686,31.8913635 17.4853686,31.9962935 C17.4853686,32.0953287 17.1694338,32.173535 17.1141453,32.2423094 C16.8495499,32.6132982 16.892991,32.6518119 16.9324828,32.7932907 C16.9719746,32.9390925 17.280011,32.9815361 17.386639,32.996863 C17.4853686,33.0188708 17.6117425,32.9178706 17.6749294,32.9178706 C17.7381163,32.9178706 17.6512343,32.996863 18.0619494,32.5468818 C18.4766138,32.0953287 18.7846501,31.9114063 18.7846501,31.9114063 C19.0571438,31.9298771 19.1519243,31.9114063 19.2388063,31.9554219 C19.3217392,31.9962935 19.4876049,31.7907563 19.5863345,31.7907563 C19.6929625,31.7907563 19.7324543,31.5443474 20.0207448,31.8532428 C20.3090352,32.1617451 20.4472566,32.0163364 20.5499354,32.1165505 C20.6565634,32.2238386 20.6960552,32.2014378 20.861921,32.2647102 C21.0277867,32.3232667 21.5806725,31.9734997 21.5806725,31.9734997 L21.8294711,31.5856121 L22.0782697,31.1379889 C22.0782697,31.1379889 22.1967452,31.010658 22.3270683,30.9937592 C22.449493,30.9709654 22.9391918,30.9513155 23.0458198,30.9709654 C23.1445494,30.9937592 23.4762808,30.9937592 23.5987055,31.010658 C23.7250794,31.0334518 24.4793736,30.9289147 24.5860016,30.9289147 C24.6926295,30.9289147 25.2850071,30.8059068 25.2850071,30.8059068 L25.6759764,30.4573188 C25.6759764,30.4573188 26.3157442,30.5594979 26.3394393,30.6443852 C26.355236,30.7233775 26.7106626,30.9049419 26.7106626,30.9049419 L27.7729931,30.8059068 C27.7729931,30.8059068 27.9388588,30.5594979 28.1442164,30.5209842 C28.3535232,30.4824706 29.8976542,30.7897939 29.9568919,30.7897939 C30.0200789,30.7897939 30.5729646,30.7512802 30.7230336,30.7052996 C30.8612551,30.666786 31.2087833,30.4199841 31.2956653,30.4388479 C31.3785982,30.4573188 32.962221,29.9063375 32.962221,29.9063375 L33.6375315,29.3746131 L33.7876005,29.0048032 C33.7876005,29.0048032 33.5151068,28.68176 33.4163772,28.7202737 C33.3097492,28.7583944 33.025408,28.6369584 32.7173716,28.7414955 C32.4093352,28.8409236 32.1644858,28.80241 31.911738,28.6208455 C31.6668886,28.4318142 31.5405147,28.3720787 31.8288052,28.2290279 C32.1170956,28.0859771 32.6146928,27.7802258 32.7608126,27.6969105 C32.9029832,27.6120232 33.0648998,27.4689724 33.2268163,27.3455715 C33.3966313,27.2253145 33.8033972,26.8558977 33.9100252,26.7737614 C34.012704,26.6900531 34.399724,26.1976284 34.4194699,26.117064 C34.443165,26.0349277 34.5260979,25.5660828 34.5260979,25.5660828 L34.7709473,25.2976661 L35,24.8893426 C35,24.8893426 34.8143883,24.3587971 34.6722177,24.2365752 C34.5260979,24.1108163 34.4668601,23.7241076 34.2575534,23.680485 C34.0521958,23.6423643 33.7599562,23.3943834 33.455869,23.4352551 C33.1478327,23.4753407 33.1083408,23.3535118 32.8792881,23.3731616 C32.6541847,23.3943834 32.6699814,23.3126401 32.3856401,23.5004925 C32.0973497,23.680485 31.8288052,23.7626213 31.7063805,23.8475085 C31.5800066,23.9308238 30.9441879,23.4753407 30.8849502,23.5004925 C30.817814,23.5150334 30.8020173,23.3126401 30.8849502,23.20771 C30.967883,23.1098539 31.0903078,22.9683751 31.1495455,22.9243595 C31.2087833,22.8846668 31.3114621,22.6795226 31.2956653,22.5565146 C31.2719702,22.4358647 31.1890374,22.164304 31.1100537,21.9615177 C31.0271208,21.7551945 30.6164057,21.5115366 30.6164057,21.5115366 L30.4505399,21.0202908 C30.4505399,21.0202908 30.1859446,20.6921386 30.1227577,20.6921386 C30.0556215,20.6921386 29.937146,20.2830292 29.9174001,20.1635582 C29.8976542,20.0366203 30.0200789,19.5705263 29.9174001,19.5426235 C29.8147213,19.5241527 29.4829898,19.0741715 29.4829898,19.0741715 C29.4829898,19.0741715 29.4198029,18.8914281 29.400057,18.8277626 C29.3842602,18.7664552 29.443498,18.441447 29.3171241,18.3997893 C29.1946994,18.3565597 29.4198029,18.2347307 28.906409,18.1522015 C28.393015,18.0743881 28.5588808,17.8464501 28.2903362,17.8240493 C28.0217917,17.8055784 27.3030402,17.4786052 27.3030402,17.4786052 C27.3030402,17.4786052 27.2201073,17.0042583 27.0581908,16.928017 C26.8923251,16.8454877 26.7462053,16.225732 26.7264593,16.1652105 C26.7106626,16.1027241 26.7462053,15.7344862 26.6237805,15.6932216 C26.5013558,15.6523499 26.3986771,15.2471704 26.2328113,15.2023688 C26.0669456,15.1638551 26.0274537,14.8789326 25.9642668,14.7743955 C25.905029,14.6733953 25.924775,14.3849358 25.8418421,14.364107 C25.7589092,14.3456361 25.3876859,13.7695031 25.3876859,13.7695031 L25.1428365,13.6449232 L24.8940379,13.5667168 C24.8940379,13.5667168 24.8545461,13.2597865 24.6689344,13.3246309 C24.4793736,13.3827944 24.317457,13.2778643 24.317457,13.2778643 C24.317457,13.2778643 24.2779652,13.1391365 24.1318454,13.2373857 C23.9896748,13.3407438 23.6618925,13.1603583 23.6618925,13.1603583 C23.6618925,13.1603583 23.7013843,12.970934 23.5789596,12.9964787 C23.4525857,13.0121986 22.8167671,13.2778643 22.749631,13.3006581 C22.6982916,13.3246309 22.8167671,12.970934 22.8562589,12.846747 C22.8997,12.727276 22.9628869,12.6439608 23.1879904,12.5437466 C23.4091447,12.4427465 23.6618925,12.2796529 23.6618925,12.2796529 C23.6618925,12.2796529 23.823809,12.0108432 23.7645713,11.9302789 C23.7013843,11.8497146 23.7013843,11.6626482 23.7250794,11.5781539 C23.7408762,11.4983756 24.0726076,11.2519667 24.0726076,11.2519667 C24.0726076,11.2519667 24.3451013,11.0884801 24.4043391,10.9662582 C24.4635769,10.8404992 24.874292,10.289518 24.874292,10.289518 L24.9137838,9.75740055 L25.3087022,9.43435733 C25.3087022,9.43435733 25.5140598,9.07908838 25.5732976,9.06218952 C25.6364845,9.03939572 25.7786552,8.8782671 25.8023503,8.55129391 C25.8220962,8.22274873 25.8220962,8.07694698 25.8220962,8.07694698 C25.8220962,8.07694698 25.8813339,7.89302456 25.8576388,7.7723746 C25.8418421,7.64936666 25.924775,6.93136182 25.4350761,7.11449825 C24.9374789,7.29842067 24.7953083,7.27837784 24.6491885,7.27837784 C24.5030687,7.27837784 24.317457,7.15969286 24.2582193,7.19899252 C24.1950323,7.23750619 24.6926295,6.91446297 23.8001139,7.15969286 C22.9194459,7.40295777 22.2204403,7.27837784 22.2204403,7.27837784 C22.2204403,7.27837784 21.9518958,7.07598458 21.8294711,7.15969286 C21.7070464,7.23750619 21.355569,7.46544424 21.355569,7.46544424 C21.355569,7.46544424 21.1699573,7.66940948 21.0514818,7.73425393 C20.9251079,7.79202443 20.7355471,7.69023831 20.7355471,7.69023831 C20.7355471,7.56723036 20.6802585,7.32121448 20.6131224,7.10506633 C20.5499354,6.89166916 20.4906977,6.70696075 20.4906977,6.70696075 C20.8777177,6.32378904 20.8658701,6.61775052 21.0277867,6.46290985 C21.2884328,6.20313908 21.0751769,6.12139578 21.3200263,5.88716979 C21.4661461,5.73743808 21.9676925,5.63015 22.1572533,5.43679566 C22.3902552,5.20885762 22.3033732,4.90742921 22.3033732,4.90742921 L22.2204403,4.33247514 L21.1502114,4.08488727 C21.1502114,4.08488727 20.1668646,4.25033885 19.9141168,4.41186046 C19.6732166,4.57888403 19.1795685,4.16938155 19.1795685,4.16938155 L18.1843741,4 C18.1053905,4.82254194 17.6907261,5.48002529 17.6907261,5.48002529 L17.1970781,5.31339472 L17.3629439,6.62443146 C17.3629439,6.62443146 16.379597,6.46290985 16.379597,6.70696075 C16.379597,6.95258364 15.9649327,7.19899252 16.1268492,7.52596572 C16.292715,7.85451089 16.2137313,8.2608694 16.2137313,8.2608694 C16.2137313,8.2608694 16.7073793,8.7509362 16.7903122,9.00127505 C16.873245,9.24493295 16.0518147,10.3079888 16.0518147,10.3079888 L15.392301,10.638106 C15.392301,10.638106 14.8157201,11.2936244 15.0605695,11.3753677 L15.3251649,11.5781539" id="Fill-536"></path>
            <path d="M4.59008887,28.3903203 C4.79729765,28.4519125 4.92539035,28.6483418 5.19287804,28.709934 C5.45283087,28.7698615 5.63366762,29 5.84464383,29 C6.05185261,29 6.26282882,28.9679554 6.81287394,28.7994091 C7.35915162,28.6225396 7.2046869,28.6791379 7.98831282,28.3636858 C8.77570617,28.0453207 8.61370658,28.0998381 8.85482225,27.8672027 C9.08840306,27.6374804 9.22026319,27.4901584 9.45384399,27.2908161 C9.69119223,27.0906414 9.87202898,26.8588383 10.0340286,26.6316129 C10.1847259,26.3964805 10.4748181,26.4834587 10.6594223,26.4539111 C10.8440265,26.4256119 11.0248633,26.5100931 11.2094674,26.5100931 C11.3940716,26.5100931 11.9704888,26.4834587 12.1211861,26.4256119 C12.2831857,26.3669329 12.5205339,26.3669329 12.5205339,26.3669329 C12.5205339,26.3669329 13.4849966,23.5607417 13.462392,22.6385231 C13.4360199,21.7158884 13.462392,21.9443622 13.462392,21.7408582 C13.462392,21.5365219 13.070579,21.1057926 12.9123469,20.9950931 C12.9123469,20.9950931 12.904812,20.5914144 12.9763932,20.3887427 C13.0479744,20.186071 13.6130893,20.1240626 13.6130893,20.1240626 C14.0350417,19.9459446 14.0877857,19.8356612 14.2723899,19.7174708 C14.4532267,19.6013611 14.8186676,19.1960178 14.9542952,19.0520252 C15.0823879,18.9096972 14.8977837,18.7066094 14.9241557,18.5622006 C14.9542952,18.4148787 14.7169469,18.1023398 14.6679703,17.9554341 C14.6076914,17.8081122 14.0877857,17.0602662 13.8014609,16.7714486 C13.5076012,16.4830472 13.3569039,16.3931559 13.3569039,16.3931559 C13.3569039,16.3931559 13.044207,16.1309728 12.9613235,16.0539826 C12.8822074,15.9599296 12.3359297,16.0173602 12.3359297,16.0173602 L11.7067685,16.1588558 L10.6066783,17.0003386 C10.6066783,17.0003386 10.5539342,17.5792222 10.5275622,17.6662004 C10.5011902,17.7502654 9.98128451,18.2159525 9.90216843,18.2704699 C9.82305236,18.3308136 9.27300724,18.9379963 9.27300724,18.9379963 L9.27300724,19.3995218 L10.1621213,19.8635442 C10.1621213,19.8635442 9.37849534,19.6879232 9.16751913,19.6013611 C8.95654292,19.5143829 8.90379887,19.4274047 8.90379887,19.1960178 C8.90379887,18.9646308 8.67021807,18.8493535 8.67021807,18.8493535 L8.35752119,19.0520252 L7.72835999,19.7174708 L7.41566311,19.5747267 C7.41566311,19.5747267 6.99371069,19.6013611 6.88822258,19.6321572 C6.78650191,19.6571271 6.42106098,19.896005 6.28920085,19.896005 C6.15734072,19.896005 5.74292316,19.6879232 5.53194695,19.5747267 C5.32097074,19.4569524 5.05725048,19.5747267 5.00827386,19.4852515 C4.95176238,19.3995218 4.45822874,19.3995218 4.35274064,19.4274047 C4.25101997,19.4569524 4.25101997,19.5435144 4.19450848,19.776566 C4.14553186,20.0062883 4.21711308,20.4116317 4.29999659,20.4399308 C4.37911266,20.4719754 4.69557698,20.7886759 4.76715819,20.8153104 C4.8500417,20.8477711 5.26445926,21.0159012 5.16650602,21.3051349 C5.05725048,21.5964495 4.87641373,21.7999535 4.66920495,22.0017928 C4.45822874,22.2023837 4.45822874,22.3467924 4.5109728,22.5486318 C4.55994942,22.7517196 4.71818157,22.6913759 4.90278576,22.6680707 C5.08362251,22.6385231 5.3737148,22.6913759 5.6072956,22.6680707 C5.84464383,22.6385231 6.17994531,22.9273407 6.39092152,22.9273407 C6.60566516,22.9273407 6.52278165,23.3031364 6.49640962,23.3884499 C6.4700376,23.4741796 6.15734072,23.6510492 6.10459666,23.7380274 C6.05185261,23.8216763 5.82203924,24.2270196 5.89738789,24.37559 C5.97273653,24.5158372 6.28920085,24.7193412 6.28920085,24.7193412 L5.76552776,25.5017287 C5.76552776,25.5017287 5.21925007,25.8171807 5.13636656,25.8775245 C5.05725048,25.9362035 4.74078617,26.1954735 4.59008887,26.3095023 C4.43185672,26.4256119 4.1153924,26.8280421 4.04004376,26.9150203 C3.96092768,27.00075 4.0099043,27.3790428 4.09278781,27.5559123 C4.17190389,27.7269555 4.37911266,28.3345544 4.59008887,28.3903203" id="Fill-537"></path>
        </g>
    </g>
</svg>