<?xml version="1.0" encoding="UTF-8"?>
<svg width="16px" height="10px" viewBox="0 0 16 10" version="1.1" xmlns="http://www.w3.org/2000/svg" xmlns:xlink="http://www.w3.org/1999/xlink">
    <title>icon / stocks down</title>
    <g id="Icons" stroke="none" stroke-width="1" fill="none" fill-rule="evenodd">
        <g id="3-Icons-/-stocks-/-down-/-dark" transform="translate(-1.000000, -4.000000)" fill="#BA293A">
            <g id="icon-/-stocks-down" transform="translate(1.000000, 4.000000)">
                <path d="M15.768511,0 L10.4955428,1.36618382 L11.767365,2.6589554 L6.97354597,7.37452774 L4.78228023,5.33438378 C4.43043866,5.00635643 3.88378608,5.00922129 3.53498843,5.34065068 L0.283542567,8.42969435 C-0.0811909107,8.77598525 -0.0960524123,9.35200272 0.250596588,9.71655715 C0.429471769,9.90510126 0.669762553,10 0.910769554,10 C1.13584073,10 1.36144906,9.91691883 1.53745938,9.74950312 L4.16848232,7.2502641 L6.37067036,9.30061416 C6.72752545,9.63311787 7.28241453,9.62523949 7.62942163,9.28342495 L13.0442008,3.95691955 L14.316023,5.24969113 L15.768511,0 Z" id="Path" transform="translate(7.884255, 5.000000) scale(1, -1) translate(-7.884255, -5.000000) "></path>
            </g>
        </g>
    </g>
</svg>