<svg width="18" height="18" viewBox="0 0 18 18" fill="none" xmlns="http://www.w3.org/2000/svg">
<path d="M16 0H2C0.9 0 0 0.9 0 2V16C0 17.1 0.9 18 2 18H16C17.1 18 18 17.1 18 16V2C18 0.9 17.1 0 16 0ZM4.5 15C3.67 15 3 14.33 3 13.5C3 12.67 3.67 12 4.5 12C5.33 12 6 12.67 6 13.5C6 14.33 5.33 15 4.5 15ZM4.5 6C3.67 6 3 5.33 3 4.5C3 3.67 3.67 3 4.5 3C5.33 3 6 3.67 6 4.5C6 5.33 5.33 6 4.5 6ZM9 10.5C8.17 10.5 7.5 9.83 7.5 9C7.5 8.17 8.17 7.5 9 7.5C9.83 7.5 10.5 8.17 10.5 9C10.5 9.83 9.83 10.5 9 10.5ZM13.5 15C12.67 15 12 14.33 12 13.5C12 12.67 12.67 12 13.5 12C14.33 12 15 12.67 15 13.5C15 14.33 14.33 15 13.5 15ZM13.5 6C12.67 6 12 5.33 12 4.5C12 3.67 12.67 3 13.5 3C14.33 3 15 3.67 15 4.5C15 5.33 14.33 6 13.5 6Z" fill="black"/>
</svg>
