<?xml version="1.0" encoding="UTF-8"?>
<svg width="26px" height="24px" viewBox="0 0 26 24" version="1.1" xmlns="http://www.w3.org/2000/svg" xmlns:xlink="http://www.w3.org/1999/xlink">
    <title>crown-homepageApp</title>
    <g id="crown-homepageApp" stroke="none" stroke-width="1" fill="none" fill-rule="evenodd">
        <path d="M11.9139899,7.73292868 L13.0196272,8.80804249 L14.1047898,7.73292868 L11.9139899,7.73292868 Z M13.4291225,9.20257967 L14.5449972,10.2776935 L14.5449972,8.12746586 L13.4291225,9.20257967 Z M11.5044946,8.12746586 L11.5044946,10.2776935 L12.6203693,9.20257967 L11.5044946,8.12746586 Z M17.9130961,7.41729894 L17.9642831,7.28907436 C18.0618146,6.99246941 18.1101833,6.68289997 18.1076064,6.37177542 C18.1135996,5.97601204 17.9958882,5.58766336 17.7697728,5.25720789 C17.5753457,4.99417965 17.2936959,4.80283487 16.9712569,4.71471927 C16.7739606,4.66504773 16.5711524,4.63855281 16.3672514,4.63581184 C15.8184921,4.65076664 15.2758028,4.75067729 14.7599823,4.93171472 C14.2209355,5.11957156 13.6540753,5.22280795 13.0810515,5.23748103 L13.0810515,5.23748103 C12.4706493,5.22945984 11.8656287,5.12619967 11.2895095,4.93171472 C10.768074,4.75807577 10.2232067,4.65839901 9.67200308,4.63581184 C9.47182428,4.64274783 9.27288794,4.66918501 9.07823488,4.71471927 C8.75470339,4.8006185 8.47234618,4.99244383 8.27971903,5.25720789 C8.05470078,5.58723933 7.94363093,5.97731779 7.96236017,6.37177542 C7.95978328,6.68289997 8.00815195,6.99246941 8.10568353,7.28907436 L8.15687044,7.41729894 C9.27365933,6.64775876 10.5943417,6.19966825 11.9651768,6.12518968 C12.6799722,6.05557237 13.4002318,6.05557237 14.1150272,6.12518968 C15.4889504,6.19996767 16.8128371,6.64794112 17.9335709,7.41729894 L17.9130961,7.41729894 Z M14.3095374,0.414264036 L14.3095374,2.06145675 L13.4598347,1.24279211 L14.3095374,0.414264036 Z M13.8795674,2.47572079 L12.1699245,2.47572079 L13.0196272,1.64719272 L13.8795674,2.47572079 Z M11.729717,2.06145675 L11.729717,0.414264036 L12.5896571,1.24279211 L11.729717,2.06145675 Z M13.0196272,0.828528073 L12.1699245,-1.38777878e-17 L13.8795674,-1.38777878e-17 L13.0196272,0.828528073 Z M18.9368344,7.39757208 C18.9368344,7.63429439 18.8037484,7.92033384 18.7320868,8.13732929 L17.8619092,10.8497724 C17.2986437,10.7850934 16.8347908,10.3930678 16.6948476,9.86342944 C16.935447,9.55173529 17.3154171,9.36869007 17.7185859,9.37025797 C17.6292438,9.09781892 17.3791452,8.90349395 17.0838681,8.87708649 C16.838171,8.87708649 16.8074588,8.92640364 16.8074588,8.92640364 C16.8411758,8.7507149 16.8583081,8.57244498 16.8586457,8.39377845 C16.8369056,8.06589048 16.6735217,7.76179191 16.4082009,7.55538695 C16.1387449,7.75851411 15.974331,8.06452981 15.957756,8.39377845 C15.9411378,8.5709592 15.9411378,8.7492229 15.957756,8.92640364 C15.8668254,8.87976944 15.7627612,8.86248274 15.660872,8.87708649 C15.3820512,8.90799235 15.1509032,9.09944014 15.0773411,9.36039454 C15.478639,9.3663666 15.8553419,9.54783793 16.1010794,9.85356601 C15.8488146,10.3514025 15.3139368,10.6575065 14.7395075,10.6327769 C14.0145697,10.5780773 13.363878,10.1834845 12.9991525,9.57738998 C12.6397657,10.1792555 11.9973262,10.573482 11.2792722,10.6327769 C10.7091427,10.6517522 10.1788254,10.3520998 9.91770026,9.86342944 C10.1604214,9.55418456 10.5390304,9.37179498 10.9414385,9.37025797 C10.874281,9.11143544 10.6521837,8.91690407 10.3783825,8.87708649 C10.2600572,8.85060296 10.1357138,8.8682208 10.0303115,8.92640364 C10.0840788,8.75358569 10.1116631,8.57419283 10.1122105,8.39377845 C10.0841732,8.06072539 9.90891544,7.75534766 9.63105355,7.55538695 C9.36051458,7.75764721 9.19582376,8.06417837 9.18060871,8.39377845 C9.18077534,8.57295179 9.20137369,8.75156514 9.24203301,8.92640364 C9.1444867,8.86734451 9.02603275,8.84951216 8.91443676,8.87708649 C8.62847013,8.90690117 8.38765103,9.09638614 8.3001938,9.36039454 C8.70112958,9.36778917 9.07723061,9.54897054 9.32393207,9.85356601 C9.18398882,10.3832043 8.72013593,10.7752299 8.15687044,10.839909 L7.33787983,8.13732929 C7.26621815,7.92033384 7.16384432,7.63429439 7.11265741,7.39757208 C7.03671664,7.07392138 6.99894038,6.74304538 7.00002261,6.41122914 C7.01780276,5.82265226 7.21741358,5.25256264 7.57333963,4.77389985 C7.89130344,4.36718512 8.34203599,4.07535696 8.85301246,3.94537178 C9.1223629,3.87003609 9.40179227,3.83347503 9.68224046,3.83687405 C10.3517339,3.83934855 11.0136413,3.9736073 11.6273432,4.23141123 C11.8189026,4.30641962 12.0178347,4.36259741 12.2211114,4.39908953 C12.1413034,4.26058514 12.1023597,4.10367829 12.1085002,3.94537178 C12.1085002,3.46055125 12.5164256,3.06752656 13.0196272,3.06752656 C13.5228288,3.06752656 13.9307543,3.46055125 13.9307543,3.94537178 C13.9325309,4.09069993 13.8936303,4.23380425 13.8181431,4.35963581 C14.0315011,4.32358509 14.2406661,4.26742248 14.4426234,4.19195751 C15.0566744,3.93520757 15.7183543,3.80099496 16.3877261,3.79742033 C16.6564231,3.81059084 16.9218244,3.86040381 17.1760046,3.94537178 C17.6927596,4.08015286 18.1450105,4.38342162 18.4556774,4.80349014 C18.8046982,5.28362051 18.9939293,5.85465698 18.9982587,6.44081942 C19.0084286,6.77247834 18.9740184,7.10401124 18.8958849,7.42716237 L18.9368344,7.39757208 Z M15.2104271,11.7473445 L16.5924738,11.7473445 L16.5924738,11.116085 L15.2104271,11.116085 L15.2104271,11.7473445 Z M9.34440683,11.7473445 L10.7162161,11.7473445 L10.7162161,11.1259484 L9.34440683,11.1259484 L9.34440683,11.7473445 Z M11.9754142,11.4415781 L12.9991525,11.8558422 L14.0228907,11.4415781 L12.9991525,10.9385432 L11.9754142,11.4415781 Z M8.33090595,13 L17.7185859,13 L17.7185859,12.3095599 L8.33090595,12.3095599 L8.33090595,13 Z" id="Fill-1" fill="#002245" fill-rule="nonzero"></path>
        <path d="M4.91398989,18.7329287 L6.01962722,19.8080425 L7.10478978,18.7329287 L4.91398989,18.7329287 Z M6.42912252,20.2025797 L7.54499724,21.2776935 L7.54499724,19.1274659 L6.42912252,20.2025797 Z M4.50449458,19.1274659 L4.50449458,21.2776935 L5.62036929,20.2025797 L4.50449458,19.1274659 Z M10.9130961,18.4172989 L10.9642831,18.2890744 C11.0618146,17.9924694 11.1101833,17.6829 11.1076064,17.3717754 C11.1135996,16.976012 10.9958882,16.5876634 10.7697728,16.2572079 C10.5753457,15.9941797 10.2936959,15.8028349 9.97125693,15.7147193 C9.77396064,15.6650477 9.57115238,15.6385528 9.36725136,15.6358118 C8.81849207,15.6507666 8.27580284,15.7506773 7.75998227,15.9317147 C7.22093554,16.1195716 6.65407532,16.222808 6.08105151,16.237481 L6.08105151,16.237481 C5.47064934,16.2294598 4.8656287,16.1261997 4.28950954,15.9317147 C3.76807401,15.7580758 3.22320671,15.658399 2.67200308,15.6358118 C2.47182428,15.6427478 2.27288794,15.669185 2.07823488,15.7147193 C1.75470339,15.8006185 1.47234618,15.9924438 1.27971903,16.2572079 C1.05470078,16.5872393 0.943630926,16.9773178 0.962360169,17.3717754 C0.959783279,17.6829 1.00815195,17.9924694 1.10568353,18.2890744 L1.15687044,18.4172989 C2.27365933,17.6477588 3.59434173,17.1996682 4.9651768,17.1251897 C5.67997217,17.0555724 6.40023179,17.0555724 7.11502716,17.1251897 C8.48895045,17.1999677 9.81283709,17.6479411 10.9335709,18.4172989 L10.9130961,18.4172989 Z M7.30953744,11.414264 L7.30953744,13.0614568 L6.45983467,12.2427921 L7.30953744,11.414264 Z M6.87956736,13.4757208 L5.16992445,13.4757208 L6.01962722,12.6471927 L6.87956736,13.4757208 Z M4.729717,13.0614568 L4.729717,11.414264 L5.58965714,12.2427921 L4.729717,13.0614568 Z M6.01962722,11.8285281 L5.16992445,11 L6.87956736,11 L6.01962722,11.8285281 Z M11.9368344,18.3975721 C11.9368344,18.6342944 11.8037484,18.9203338 11.7320868,19.1373293 L10.8619092,21.8497724 C10.2986437,21.7850934 9.83479085,21.3930678 9.6948476,20.8634294 C9.93544701,20.5517353 10.3154171,20.3686901 10.7185859,20.370258 C10.6292438,20.0978189 10.3791452,19.903494 10.0838681,19.8770865 C9.83817096,19.8770865 9.80745881,19.9264036 9.80745881,19.9264036 C9.84117578,19.7507149 9.85830807,19.572445 9.85864572,19.3937785 C9.83690556,19.0658905 9.67352171,18.7617919 9.40820089,18.5553869 C9.13874487,18.7585141 8.974331,19.0645298 8.95775605,19.3937785 C8.94113777,19.5709592 8.94113777,19.7492229 8.95775605,19.9264036 C8.86682536,19.8797694 8.7627612,19.8624827 8.66087195,19.8770865 C8.38205116,19.9079923 8.15090316,20.0994401 8.07734114,20.3603945 C8.47863898,20.3663666 8.85534192,20.5478379 9.10107941,20.853566 C8.84881461,21.3514025 8.31393678,21.6575065 7.73950751,21.6327769 C7.01456969,21.5780773 6.36387798,21.1834845 5.99915245,20.57739 C5.63976569,21.1792555 4.99732619,21.573482 4.27927216,21.6327769 C3.70914266,21.6517522 3.17882542,21.3520998 2.91770026,20.8634294 C3.16042136,20.5541846 3.53903043,20.371795 3.94143853,20.370258 C3.87428103,20.1114354 3.65218372,19.9169041 3.37838248,19.8770865 C3.26005716,19.850603 3.1357138,19.8682208 3.03031147,19.9264036 C3.0840788,19.7535857 3.11166312,19.5741928 3.11221053,19.3937785 C3.08417322,19.0607254 2.90891544,18.7553477 2.63105355,18.5553869 C2.36051458,18.7576472 2.19582376,19.0641784 2.18060871,19.3937785 C2.18077534,19.5729518 2.20137369,19.7515651 2.24203301,19.9264036 C2.1444867,19.8673445 2.02603275,19.8495122 1.91443676,19.8770865 C1.62847013,19.9069012 1.38765103,20.0963861 1.3001938,20.3603945 C1.70112958,20.3677892 2.07723061,20.5489705 2.32393207,20.853566 C2.18398882,21.3832043 1.72013593,21.7752299 1.15687044,21.839909 L0.337879825,19.1373293 C0.266218146,18.9203338 0.163844319,18.6342944 0.112657406,18.3975721 C0.0367166419,18.0739214 -0.00105961728,17.7430454 2.26071648e-05,17.4112291 C0.0178027642,16.8226523 0.217413581,16.2525626 0.573339627,15.7738998 C0.891303439,15.3671851 1.34203599,15.075357 1.85301246,14.9453718 C2.1223629,14.8700361 2.40179227,14.833475 2.68224046,14.8368741 C3.35173389,14.8393485 4.01364127,14.9736073 4.62734317,15.2314112 C4.81890262,15.3064196 5.01783466,15.3625974 5.22111137,15.3990895 C5.14130342,15.2605851 5.10235967,15.1036783 5.10850016,14.9453718 C5.10850016,14.4605512 5.51642564,14.0675266 6.01962722,14.0675266 C6.5228288,14.0675266 6.93075428,14.4605512 6.93075428,14.9453718 C6.93253093,15.0906999 6.89363025,15.2338043 6.81814307,15.3596358 C7.03150108,15.3235851 7.24066614,15.2674225 7.44262341,15.1919575 C8.05667441,14.9352076 8.71835429,14.800995 9.38772612,14.7974203 C9.65642313,14.8105908 9.92182437,14.8604038 10.1760046,14.9453718 C10.6927596,15.0801529 11.1450105,15.3834216 11.4556774,15.8034901 C11.8046982,16.2836205 11.9939293,16.854657 11.9982587,17.4408194 C12.0084286,17.7724783 11.9740184,18.1040112 11.8958849,18.4271624 L11.9368344,18.3975721 Z M8.21042711,22.7473445 L9.59247377,22.7473445 L9.59247377,22.116085 L8.21042711,22.116085 L8.21042711,22.7473445 Z M2.34440683,22.7473445 L3.71621611,22.7473445 L3.71621611,22.1259484 L2.34440683,22.1259484 L2.34440683,22.7473445 Z M4.97541418,22.4415781 L5.99915245,22.8558422 L7.02289072,22.4415781 L5.99915245,21.9385432 L4.97541418,22.4415781 Z M1.33090595,24 L10.7185859,24 L10.7185859,23.3095599 L1.33090595,23.3095599 L1.33090595,24 Z" id="Fill-1" fill="#002245" fill-rule="nonzero"></path>
        <path d="M18.9139899,18.7329287 L20.0196272,19.8080425 L21.1047898,18.7329287 L18.9139899,18.7329287 Z M20.4291225,20.2025797 L21.5449972,21.2776935 L21.5449972,19.1274659 L20.4291225,20.2025797 Z M18.5044946,19.1274659 L18.5044946,21.2776935 L19.6203693,20.2025797 L18.5044946,19.1274659 Z M24.9130961,18.4172989 L24.9642831,18.2890744 C25.0618146,17.9924694 25.1101833,17.6829 25.1076064,17.3717754 C25.1135996,16.976012 24.9958882,16.5876634 24.7697728,16.2572079 C24.5753457,15.9941797 24.2936959,15.8028349 23.9712569,15.7147193 C23.7739606,15.6650477 23.5711524,15.6385528 23.3672514,15.6358118 C22.8184921,15.6507666 22.2758028,15.7506773 21.7599823,15.9317147 C21.2209355,16.1195716 20.6540753,16.222808 20.0810515,16.237481 L20.0810515,16.237481 C19.4706493,16.2294598 18.8656287,16.1261997 18.2895095,15.9317147 C17.768074,15.7580758 17.2232067,15.658399 16.6720031,15.6358118 C16.4718243,15.6427478 16.2728879,15.669185 16.0782349,15.7147193 C15.7547034,15.8006185 15.4723462,15.9924438 15.279719,16.2572079 C15.0547008,16.5872393 14.9436309,16.9773178 14.9623602,17.3717754 C14.9597833,17.6829 15.008152,17.9924694 15.1056835,18.2890744 L15.1568704,18.4172989 C16.2736593,17.6477588 17.5943417,17.1996682 18.9651768,17.1251897 C19.6799722,17.0555724 20.4002318,17.0555724 21.1150272,17.1251897 C22.4889504,17.1999677 23.8128371,17.6479411 24.9335709,18.4172989 L24.9130961,18.4172989 Z M21.3095374,11.414264 L21.3095374,13.0614568 L20.4598347,12.2427921 L21.3095374,11.414264 Z M20.8795674,13.4757208 L19.1699245,13.4757208 L20.0196272,12.6471927 L20.8795674,13.4757208 Z M18.729717,13.0614568 L18.729717,11.414264 L19.5896571,12.2427921 L18.729717,13.0614568 Z M20.0196272,11.8285281 L19.1699245,11 L20.8795674,11 L20.0196272,11.8285281 Z M25.9368344,18.3975721 C25.9368344,18.6342944 25.8037484,18.9203338 25.7320868,19.1373293 L24.8619092,21.8497724 C24.2986437,21.7850934 23.8347908,21.3930678 23.6948476,20.8634294 C23.935447,20.5517353 24.3154171,20.3686901 24.7185859,20.370258 C24.6292438,20.0978189 24.3791452,19.903494 24.0838681,19.8770865 C23.838171,19.8770865 23.8074588,19.9264036 23.8074588,19.9264036 C23.8411758,19.7507149 23.8583081,19.572445 23.8586457,19.3937785 C23.8369056,19.0658905 23.6735217,18.7617919 23.4082009,18.5553869 C23.1387449,18.7585141 22.974331,19.0645298 22.957756,19.3937785 C22.9411378,19.5709592 22.9411378,19.7492229 22.957756,19.9264036 C22.8668254,19.8797694 22.7627612,19.8624827 22.660872,19.8770865 C22.3820512,19.9079923 22.1509032,20.0994401 22.0773411,20.3603945 C22.478639,20.3663666 22.8553419,20.5478379 23.1010794,20.853566 C22.8488146,21.3514025 22.3139368,21.6575065 21.7395075,21.6327769 C21.0145697,21.5780773 20.363878,21.1834845 19.9991525,20.57739 C19.6397657,21.1792555 18.9973262,21.573482 18.2792722,21.6327769 C17.7091427,21.6517522 17.1788254,21.3520998 16.9177003,20.8634294 C17.1604214,20.5541846 17.5390304,20.371795 17.9414385,20.370258 C17.874281,20.1114354 17.6521837,19.9169041 17.3783825,19.8770865 C17.2600572,19.850603 17.1357138,19.8682208 17.0303115,19.9264036 C17.0840788,19.7535857 17.1116631,19.5741928 17.1122105,19.3937785 C17.0841732,19.0607254 16.9089154,18.7553477 16.6310535,18.5553869 C16.3605146,18.7576472 16.1958238,19.0641784 16.1806087,19.3937785 C16.1807753,19.5729518 16.2013737,19.7515651 16.242033,19.9264036 C16.1444867,19.8673445 16.0260328,19.8495122 15.9144368,19.8770865 C15.6284701,19.9069012 15.387651,20.0963861 15.3001938,20.3603945 C15.7011296,20.3677892 16.0772306,20.5489705 16.3239321,20.853566 C16.1839888,21.3832043 15.7201359,21.7752299 15.1568704,21.839909 L14.3378798,19.1373293 C14.2662181,18.9203338 14.1638443,18.6342944 14.1126574,18.3975721 C14.0367166,18.0739214 13.9989404,17.7430454 14.0000226,17.4112291 C14.0178028,16.8226523 14.2174136,16.2525626 14.5733396,15.7738998 C14.8913034,15.3671851 15.342036,15.075357 15.8530125,14.9453718 C16.1223629,14.8700361 16.4017923,14.833475 16.6822405,14.8368741 C17.3517339,14.8393485 18.0136413,14.9736073 18.6273432,15.2314112 C18.8189026,15.3064196 19.0178347,15.3625974 19.2211114,15.3990895 C19.1413034,15.2605851 19.1023597,15.1036783 19.1085002,14.9453718 C19.1085002,14.4605512 19.5164256,14.0675266 20.0196272,14.0675266 C20.5228288,14.0675266 20.9307543,14.4605512 20.9307543,14.9453718 C20.9325309,15.0906999 20.8936303,15.2338043 20.8181431,15.3596358 C21.0315011,15.3235851 21.2406661,15.2674225 21.4426234,15.1919575 C22.0566744,14.9352076 22.7183543,14.800995 23.3877261,14.7974203 C23.6564231,14.8105908 23.9218244,14.8604038 24.1760046,14.9453718 C24.6927596,15.0801529 25.1450105,15.3834216 25.4556774,15.8034901 C25.8046982,16.2836205 25.9939293,16.854657 25.9982587,17.4408194 C26.0084286,17.7724783 25.9740184,18.1040112 25.8958849,18.4271624 L25.9368344,18.3975721 Z M22.2104271,22.7473445 L23.5924738,22.7473445 L23.5924738,22.116085 L22.2104271,22.116085 L22.2104271,22.7473445 Z M16.3444068,22.7473445 L17.7162161,22.7473445 L17.7162161,22.1259484 L16.3444068,22.1259484 L16.3444068,22.7473445 Z M18.9754142,22.4415781 L19.9991525,22.8558422 L21.0228907,22.4415781 L19.9991525,21.9385432 L18.9754142,22.4415781 Z M15.3309059,24 L24.7185859,24 L24.7185859,23.3095599 L15.3309059,23.3095599 L15.3309059,24 Z" id="Fill-1" fill="#002245" fill-rule="nonzero"></path>
    </g>
</svg>