<svg width="40" height="40" viewBox="0 0 40 40" fill="none" xmlns="http://www.w3.org/2000/svg">
<path d="M0 8C0 3.58172 3.58172 0 8 0H32C36.4183 0 40 3.58172 40 8V32C40 36.4183 36.4183 40 32 40H8C3.58172 40 0 36.4183 0 32V8Z" fill="#22BD05"/>
<path d="M0 8C0 3.58172 3.58172 0 8 0H32C36.4183 0 40 3.58172 40 8V32C40 36.4183 36.4183 40 32 40H8C3.58172 40 0 36.4183 0 32V8Z" fill="black" fill-opacity="0.45"/>
<path d="M25.3334 12L28.3867 15.0533L21.8801 21.56L16.5467 16.2267L6.66675 26.12L8.54675 28L16.5467 20L21.8801 25.3333L30.2801 16.9467L33.3334 20V12H25.3334Z" fill="white"/>
</svg>
