<svg width="24" height="24" xmlns="http://www.w3.org/2000/svg" xmlns:xlink="http://www.w3.org/1999/xlink">
    <defs>
        <path d="M3.42 2.45L21.15 20.2l-1.41 1.41-3.43-3.43c-1.34.52-2.79.82-4.31.82-5 0-9.27-3.11-11-7.5a11.723 11.723 0 013.388-4.705l.302-.245-2.68-2.68 1.41-1.42zm4.07 6.91C7.18 10 7 10.73 7 11.5c0 2.76 2.24 5 5 5 .674 0 1.31-.138 1.893-.387L14.14 16l-1.57-1.57c-.19.04-.37.07-.57.07-1.66 0-3-1.34-3-3 0-.133.013-.262.031-.387l.029-.183-1.57-1.57zM12 4c5 0 9.27 3.11 11 7.49a11.778 11.778 0 01-2.887 4.262l-.293.268-3.06-3.06c.14-.46.24-.95.24-1.46 0-2.76-2.24-5-5-5-.408 0-.803.064-1.186.161l-.284.079-2.17-2.17C9.51 4.2 10.73 4 12 4zm.33 4.53a2.969 2.969 0 012.615 2.46l.025.18-2.64-2.64z" id="a"/>
    </defs>
    <g fill="none" fill-rule="evenodd">
        <mask id="b" fill="#fff">
            <use xlink:href="#a"/>
        </mask>
        <path fill="#22BD05" mask="url(#b)" d="M-5-5h34v34H-5z"/>
    </g>
</svg>