<?xml version="1.0" encoding="utf-8"?>
<svg width="40px" height="40px" viewBox="0 0 40 40" version="1.1" xmlns="http://www.w3.org/2000/svg">
  <title>* OPEN BANKING ICON@1,5x</title>
  <defs>
    <circle id="path-1" cx="16" cy="16" r="16"/>
  </defs>
  <g id="----↳-Open-banking-payments" stroke="none" stroke-width="1" fill="none" fill-rule="evenodd" transform="matrix(1.25, 0, 0, 1.25, 0, 0)">
    <g id="*-OPEN-BANKING-ICON">
      <mask id="mask-2" fill="white">
        <circle cx="16" cy="16" r="16" transform="matrix(1, 0, 0, 1, 0, 0)"/>
      </mask>
      <circle id="Background" cx="16" cy="16" r="16" transform="matrix(1, 0, 0, 1, 0, 0)" fill="#E7F3D3"/>
      <g id="Group" mask="url(#mask-2)" fill="#E7F3D3">
        <g id="2-Colors/9-Coutts-Set-3/1-$pale-green">
          <rect id="9-Coutts-Set-3/1-$pale-green" x="0" y="0" width="32" height="32"/>
        </g>
      </g>
      <g id="*-arrows" mask="url(#mask-2)" stroke="#000000" stroke-width="1.47084">
        <g transform="translate(11.487438, 9.968879)">
          <line x1="0" y1="4.35600594" x2="4.12616193" y2="0" id="Path-2"/>
          <line x1="0.814297729" y1="6.03112147" x2="9.81429773" y2="6.03112147" id="Path-2-Copy-2"/>
          <line x1="2.26041408e-13" y1="7.70623701" x2="4.16286602" y2="12.0271798" id="Path-2-Copy"/>
        </g>
      </g>
      <g id="*-big-circle" mask="url(#mask-2)" fill="#000000" fill-rule="nonzero">
        <g transform="translate(7.000000, 12.976000)" id="Combined-Shape">
          <path d="M3.01869159,0.08232 C4.64333659,0.08232 5.96037159,1.399355 5.96037159,3.024 C5.96037159,4.648645 4.64333659,5.96568 3.01869159,5.96568 C1.39404659,5.96568 0.0770115888,4.648645 0.0770115888,3.024 C0.0770115888,1.399355 1.39404659,0.08232 3.01869159,0.08232 Z M3.01869159,1.55316 C2.20636909,1.55316 1.54785159,2.2116775 1.54785159,3.024 C1.54785159,3.8363225 2.20636909,4.49484 3.01869159,4.49484 C3.83101409,4.49484 4.48953159,3.8363225 4.48953159,3.024 C4.48953159,2.2116775 3.83101409,1.55316 3.01869159,1.55316 Z"/>
        </g>
      </g>
      <g id="*-small-circle-3" mask="url(#mask-2)" fill="#000000" fill-rule="nonzero" stroke="#000000">
        <g transform="translate(12.927418, 19.393683)" id="Combined-Shape">
          <ellipse transform="translate(2.821850, 2.892072) rotate(-345.000000) translate(-2.821850, -2.892072) " cx="2.82184953" cy="2.89207152" rx="2.28304406" ry="2.38235294"/>
        </g>
      </g>
      <g id="*-small-circle-1" mask="url(#mask-2)" fill="#000000" fill-rule="nonzero" stroke="#000000">
        <g transform="translate(12.927418, 6.822174)" id="Combined-Shape">
          <ellipse transform="translate(2.821850, 2.892072) rotate(-15.000000) translate(-2.821850, -2.892072) " cx="2.82184953" cy="2.89207152" rx="2.28304406" ry="2.38235294"/>
        </g>
      </g>
      <g id="*-small-circle-2" mask="url(#mask-2)" fill="#000000" fill-rule="nonzero" stroke="#000000">
        <g transform="translate(20.433912, 13.617647)" id="Combined-Shape">
          <ellipse cx="2.28304406" cy="2.38235294" rx="2.28304406" ry="2.38235294"/>
        </g>
      </g>
    </g>
  </g>
</svg>