<?xml version="1.0" encoding="UTF-8"?>
<svg width="24px" height="24px" viewBox="0 0 24 24" version="1.1" xmlns="http://www.w3.org/2000/svg" xmlns:xlink="http://www.w3.org/1999/xlink">
    <title>6F245645-9723-4EA1-AC64-7FF6975F93E3@0.5x</title>
    <defs>
        <path d="M10,0 C4.47,0 0,4.47 0,10 C0,15.53 4.47,20 10,20 C15.53,20 20,15.53 20,10 C20,4.47 15.53,0 10,0 L10,0 Z M15,13.59 L13.59,15 L10,11.41 L6.41,15 L5,13.59 L8.59,10 L5,6.41 L6.41,5 L10,8.59 L13.59,5 L15,6.41 L11.41,10 L15,13.59 L15,13.59 Z" id="path-1"></path>
    </defs>
    <g id="Icons" stroke="none" stroke-width="1" fill="none" fill-rule="evenodd">
        <g id="UI-Mapping-Icons" transform="translate(-214.000000, -255.000000)"></g>
        <g id="close-dark" transform="translate(2.000000, 2.000000)">
            <path d="M10,1 C5.023,1 1,5.023 1,10 C1,14.977 5.023,19 10,19 C14.977,19 19,14.977 19,10 C19,5.023 14.977,1 10,1 L10,1 Z" id="Path" fill="#FFFFFF"></path>
            <mask id="mask-2" fill="white">
                <use xlink:href="#path-1"></use>
            </mask>
            <use id="Mask" fill="#5A287D" xlink:href="#path-1"></use>
        </g>
    </g>
</svg>